<svg width="71" height="104" fill="none" xmlns="http://www.w3.org/2000/svg"><g clip-path="url(#clip0)" fill="#DCDCDC"><path d="M63.83 56.3s.047.046 0 0c0 .093.047.046.047.046s.046-.046-.047-.046c.093 0 0 0 0 0zm-2.351 2.352c-.046.046 0 .092 0 .092.046.046.092 0 .092 0 .046-.046 0-.092 0-.092-.046-.046-.092 0-.092 0zm-2.444 2.352a.14.14 0 000 .184.14.14 0 00.185 0 .14.14 0 000-.184.14.14 0 00-.185 0zm-2.351 2.351a.14.14 0 000 .184.14.14 0 00.184 0 .14.14 0 000-.184.14.14 0 00-.184 0zm-2.444 2.352c-.092.092-.092.184 0 .277.092.092.184.092.276 0 .093-.093.093-.185 0-.277-.092-.092-.184-.092-.276 0zm-2.398 2.305a.28.28 0 000 .37.28.28 0 00.37 0 .28.28 0 000-.37.28.28 0 00-.37 0zm-2.444 2.352c-.138.138-.138.323 0 .461.139.138.323.138.461 0 .139-.138.139-.323 0-.461-.092-.184-.322-.138-.46 0zm-2.351 2.352c-.139.138-.139.322 0 .46.138.139.322.139.46 0 .14-.138.14-.322 0-.46-.138-.139-.322-.139-.46 0zm-2.444 2.351a.391.391 0 10.553.553.391.391 0 00-.553-.553zm-2.398 2.306a.446.446 0 000 .645.446.446 0 00.646 0 .446.446 0 000-.645.446.446 0 00-.646 0zm-2.444 2.351a.522.522 0 10.738.738.522.522 0 00-.738-.738zm-2.444 2.26a.652.652 0 10.922.922.652.652 0 00-.922-.922zm-2.397 2.397a.653.653 0 000 .922.653.653 0 00.922 0 .654.654 0 000-.922c-.23-.323-.645-.276-.922 0zm-2.398 2.306a.724.724 0 000 1.014.724.724 0 001.014 0 .724.724 0 000-1.014.724.724 0 00-1.014 0zm-2.444 2.351a.753.753 0 000 1.107.753.753 0 001.107 0 .753.753 0 000-1.106.753.753 0 00-1.107 0zm-2.398 2.306a.863.863 0 000 1.199.863.863 0 001.2 0 .863.863 0 000-1.2.863.863 0 00-1.2 0zm-2.397 2.306a.891.891 0 000 1.29.892.892 0 001.291 0 .891.891 0 000-1.29c-.369-.37-.968-.323-1.29 0zm-2.443 2.351a1.003 1.003 0 000 1.383 1.003 1.003 0 001.382 0 1.003 1.003 0 000-1.383 1.003 1.003 0 00-1.383 0zm-2.398 2.305a1.03 1.03 0 000 1.476 1.03 1.03 0 001.475 0 1.03 1.03 0 000-1.476c-.415-.415-1.107-.368-1.476 0zm-2.445 2.352c-.415.415-.415 1.153 0 1.568.416.415 1.153.415 1.568 0 .415-.415.415-1.153 0-1.568-.415-.415-1.152-.415-1.568 0zM61.48 53.949c0 .092.045.046.045.046s.047-.046-.046-.046c.046-.046 0 0 0 0zm-2.399 2.305c-.046.047 0 .093 0 .093.046.046.093 0 .093 0 .046-.047 0-.093 0-.093h-.093zm-2.443 2.352a.14.14 0 000 .184.14.14 0 00.184 0 .14.14 0 000-.184.14.14 0 00-.184 0zm-2.352 2.352a.14.14 0 000 .184.14.14 0 00.184 0 .14.14 0 000-.184.14.14 0 00-.184 0zm-2.398 2.397c-.092.092-.092.184 0 .277.093.092.185.092.277 0 .092-.093.092-.185 0-.277-.092-.092-.184-.092-.277 0zM49.49 65.66a.28.28 0 000 .37.28.28 0 00.37 0 .28.28 0 000-.37c-.139-.138-.277-.091-.37 0zM47 67.966c-.138.139-.138.323 0 .461.139.139.323.139.462 0 .138-.138.138-.322 0-.46-.047-.14-.323-.14-.462 0zm-2.35 2.352c-.14.138-.14.323 0 .46.138.14.322.14.46 0 .139-.137.139-.322 0-.46-.092-.092-.322-.138-.46 0zm-2.399 2.398a.391.391 0 10.553.553.391.391 0 00-.553-.553zm-2.443 2.259a.446.446 0 000 .645.446.446 0 00.645 0 .446.446 0 000-.645c-.138-.138-.461-.185-.645 0zm-2.398 2.398a.521.521 0 10.737.737.521.521 0 00-.737-.737zm-2.444 2.259a.652.652 0 10.922.922.652.652 0 00-.922-.922zm-2.444 2.352a.654.654 0 000 .922.653.653 0 00.922-.922c-.184-.277-.645-.277-.922 0zm-2.352 2.351a.724.724 0 000 1.015.724.724 0 001.015 0 .724.724 0 000-1.015.724.724 0 00-1.015 0zm-2.443 2.352a.753.753 0 000 1.106.753.753 0 001.106 0 .753.753 0 000-1.106.753.753 0 00-1.106 0zm-2.397 2.305a.863.863 0 000 1.2.863.863 0 001.198 0 .863.863 0 000-1.2c-.369-.368-.876-.322-1.199 0zm-2.399 2.306a.892.892 0 000 1.29.891.891 0 001.292 0 .891.891 0 000-1.29c-.37-.37-.969-.323-1.291 0zm-2.443 2.352a1.003 1.003 0 000 1.383 1.003 1.003 0 001.383 0 1.003 1.003 0 000-1.384 1.003 1.003 0 00-1.383 0zm-2.398 2.305a1.03 1.03 0 000 1.475 1.03 1.03 0 001.475 0 1.03 1.03 0 000-1.475c-.415-.415-1.107-.369-1.476 0zm-2.444 2.351c-.415.416-.415 1.153 0 1.568.415.415 1.153.415 1.568 0 .415-.415.415-1.152 0-1.567a1.099 1.099 0 00-1.568 0zM63.83 46.802a.065.065 0 10.093.092.065.065 0 00-.093-.092zM61.525 49.2c-.046.046-.046.046 0 0 0 .092.046.046.046.046l-.046-.047zm-2.444 2.351c-.046.046 0 .092 0 .092.046.046.093 0 .093 0 .046-.046 0-.092 0-.092-.047-.046-.047-.046-.093 0zm-2.398 2.305a.14.14 0 000 .185.14.14 0 00.185 0 .14.14 0 000-.184.14.14 0 00-.185 0zm-2.443 2.352c-.092.092-.092.184 0 .277.092.092.184.092.276 0 .093-.093.093-.185 0-.277-.092-.092-.184-.092-.276 0zm-2.352 2.352c-.092.092-.092.184 0 .277.093.092.185.092.277 0 .092-.093.092-.185 0-.277-.092-.092-.23-.046-.277 0zm-2.444 2.351a.26.26 0 10.37.37.26.26 0 00-.37-.37zm-2.397 2.306c-.139.138-.139.322 0 .46.138.14.322.14.46 0 .14-.138.14-.322 0-.46-.138-.139-.322-.139-.46 0zm-2.444 2.352a.42.42 0 000 .553.42.42 0 00.553 0 .42.42 0 000-.553.42.42 0 00-.553 0zm-2.352 2.351a.42.42 0 000 .553.42.42 0 00.553 0 .42.42 0 000-.553.42.42 0 00-.553 0zm-2.443 2.352a.446.446 0 000 .645.446.446 0 00.645 0 .446.446 0 000-.645.446.446 0 00-.645 0zm-2.398 2.305c-.185.185-.185.553 0 .738.184.184.553.184.737 0 .185-.184.185-.553 0-.738-.184-.184-.553-.184-.737 0zm-2.444 2.352a.587.587 0 10.83.83.587.587 0 00-.83-.83zm-2.398 2.305a.652.652 0 10.922.922.652.652 0 00-.922-.922zm-2.444 2.352a.724.724 0 000 1.014.724.724 0 001.015 0 .724.724 0 000-1.014c-.23-.323-.692-.323-1.015 0zm-2.479 2.401a.782.782 0 101.27.914.782.782 0 00-1.27-.914zM25.33 84.29a.793.793 0 000 1.106.793.793 0 001.106 0c.276-.277.276-.83 0-1.107-.277-.369-.784-.323-1.107 0zm-2.399 2.304a.863.863 0 000 1.2.863.863 0 001.2 0 .863.863 0 000-1.2.863.863 0 00-1.2 0zm-2.444 2.26a1.03 1.03 0 000 1.475 1.03 1.03 0 001.476 0 1.03 1.03 0 000-1.475c-.507-.415-1.107-.37-1.476 0zm-2.444 2.352a1.1 1.1 0 000 1.567c.462.462 1.107.462 1.568 0a1.1 1.1 0 000-1.567 1.1 1.1 0 00-1.568 0zm-2.397 2.305a1.169 1.169 0 000 1.66 1.169 1.169 0 001.66 0 1.169 1.169 0 000-1.66c-.554-.461-1.245-.415-1.66 0zm-2.444 2.352a1.238 1.238 0 101.752 1.752 1.238 1.238 0 10-1.752-1.752zm48.231-51.459c-.046.046 0 .092 0 .092.046.046.092 0 .092 0v-.092s-.046-.046-.092 0zm-2.352 2.352c-.046.046 0 .092 0 .092 0 .092.092.092.138.046.047-.046 0-.092 0-.092-.046-.046-.138-.046-.138-.046zm-2.397 2.397a.13.13 0 10.184.185.13.13 0 00-.184-.185zm-2.398 2.306a.14.14 0 000 .184.14.14 0 00.184 0 .14.14 0 000-.184.14.14 0 00-.184 0zm-2.444 2.351a.26.26 0 10.369.37.26.26 0 00-.369-.37zm-2.352 2.352a.261.261 0 10.37.369.261.261 0 00-.37-.369zm-2.443 2.352c-.139.138-.139.322 0 .46.138.139.322.139.46 0 .14-.138.14-.322 0-.46-.138-.139-.322-.139-.46 0zM44.65 60.82c-.14.138-.14.322 0 .46.138.139.322.139.46 0 .139-.138.139-.322 0-.46-.138-.14-.322-.14-.46 0zm-2.445 2.35c-.184.185-.138.416 0 .554a.42.42 0 00.553 0c.185-.184.139-.415 0-.553-.138-.139-.368-.185-.553 0zm-2.352 2.352a.446.446 0 000 .646.446.446 0 00.646 0 .446.446 0 000-.646c-.184-.184-.507-.138-.646 0zm-2.443 2.352a.446.446 0 000 .645.446.446 0 00.645 0 .446.446 0 000-.645.446.446 0 00-.645 0zm-2.352 2.352a.522.522 0 10.738.737.522.522 0 00-.738-.737zm-2.49 2.305c-.23.23-.23.6 0 .83.23.23.6.23.83 0 .23-.23.23-.6 0-.83a.584.584 0 00-.83 0zm-2.398 2.306a.724.724 0 000 1.014.724.724 0 001.015 0 .724.724 0 000-1.014.724.724 0 00-1.015 0zm-2.443 2.351a.753.753 0 000 1.107c.322.323.783.23 1.06-.046a.753.753 0 000-1.107c-.323-.323-.738-.277-1.06.046zm-2.398 2.306a.753.753 0 000 1.106.753.753 0 001.106 0 .753.753 0 000-1.106.753.753 0 00-1.106 0zm-2.398 2.397a.848.848 0 101.199 1.2.848.848 0 00-1.199-1.2zm-2.444 2.259a.891.891 0 000 1.292.891.891 0 001.291 0 .891.891 0 000-1.291c-.322-.323-.922-.37-1.29 0zm-2.397 2.306a1.03 1.03 0 000 1.476 1.03 1.03 0 001.475 0 1.03 1.03 0 000-1.476c-.415-.415-1.107-.368-1.476 0zm-2.49 2.306c-.415.415-.415 1.153 0 1.567.415.416 1.153.416 1.568 0 .415-.414.415-1.152 0-1.567a1.099 1.099 0 00-1.568 0zm-2.398 2.305a1.169 1.169 0 000 1.66 1.169 1.169 0 001.66 0 1.169 1.169 0 000-1.66c-.415-.415-1.199-.46-1.66 0zm-2.398 2.398a1.239 1.239 0 101.752 1.752 1.239 1.239 0 00-1.752-1.752zm48.231-51.459a.14.14 0 000 .185.14.14 0 00.185 0 .14.14 0 000-.185.14.14 0 00-.185 0zm-2.352 2.352a.14.14 0 000 .184.14.14 0 00.185 0 .14.14 0 000-.184.14.14 0 00-.185 0zM54.24 46.71c-.092.092-.092.184 0 .276.092.092.184.093.276 0 .093-.092.093-.184 0-.276-.046-.047-.184-.093-.276 0zm-2.352 2.351a.28.28 0 000 .369.28.28 0 00.369 0 .28.28 0 000-.369c-.184-.092-.277-.092-.369 0zm-2.444 2.352a.28.28 0 000 .369.28.28 0 00.37 0 .28.28 0 000-.37.28.28 0 00-.37 0zm-2.397 2.305c-.139.138-.139.323 0 .461.138.139.322.139.46 0 .14-.138.14-.323 0-.46-.138-.14-.368-.093-.46 0zm-2.398 2.398c-.138.138-.184.369 0 .553.138.139.369.185.553 0 .139-.138.185-.369 0-.553-.184-.184-.415-.138-.553 0zm-2.398 2.306a.42.42 0 000 .553.42.42 0 00.553 0 .42.42 0 000-.553.42.42 0 00-.553 0zm-2.443 2.351a.446.446 0 000 .645.446.446 0 00.645 0 .446.446 0 000-.645.446.446 0 00-.645 0zm-2.398 2.305c-.185.185-.185.554 0 .738.184.185.553.185.737 0 .185-.184.185-.553 0-.738-.184-.184-.553-.184-.737 0zm-2.444 2.352c-.23.23-.23.6 0 .83.23.23.6.23.83 0 .23-.23.23-.6 0-.83a.584.584 0 00-.83 0zm-2.398 2.306a.653.653 0 000 .922c.23.23.646.276.923 0a.654.654 0 000-.922c-.231-.23-.692-.23-.923 0zm-2.444 2.351a.724.724 0 000 1.015.724.724 0 001.015 0 .724.724 0 000-1.015.724.724 0 00-1.015 0zm-2.397 2.306a.753.753 0 000 1.106.753.753 0 001.106 0 .753.753 0 000-1.106c-.276-.277-.83-.277-1.106 0zm-2.444 2.351a.863.863 0 000 1.2.863.863 0 001.199 0 .863.863 0 000-1.2.863.863 0 00-1.2 0zm-2.398 2.306a.891.891 0 000 1.29.892.892 0 001.291 0 .891.891 0 000-1.29.891.891 0 00-1.29 0zm-2.444 2.351a1.003 1.003 0 000 1.384 1.003 1.003 0 001.384 0 1.003 1.003 0 000-1.384.96.96 0 00-1.384 0zm-2.397 2.306a1.03 1.03 0 000 1.475 1.03 1.03 0 001.475 0 1.03 1.03 0 000-1.475 1.03 1.03 0 00-1.475 0zm-2.398 2.306c-.415.414-.415 1.152 0 1.567.415.415 1.153.415 1.568 0 .415-.415.415-1.153 0-1.567-.415-.416-1.153-.416-1.568 0zm-2.444 2.351a1.169 1.169 0 000 1.66 1.169 1.169 0 001.66 0 1.169 1.169 0 000-1.66 1.169 1.169 0 00-1.66 0zm-2.398 2.306a1.238 1.238 0 101.752 1.752 1.238 1.238 0 000-1.752c-.46-.462-1.29-.462-1.752 0zM8.36 91.021a1.308 1.308 0 000 1.845 1.308 1.308 0 001.845 0 1.308 1.308 0 000-1.845 1.308 1.308 0 00-1.844 0zm48.324-51.366a.13.13 0 10.184.184.13.13 0 00-.184-.184zm-2.398 2.305a.14.14 0 000 .185c.046.046.138.138.23.046a.14.14 0 000-.185c-.046-.046-.184-.092-.23-.046zm-2.398 2.398c-.092.092-.092.184 0 .277.093.092.185.092.277 0 .092-.093.092-.185 0-.277-.092-.092-.184-.092-.277 0zm-2.398 2.305a.26.26 0 10.37.37.26.26 0 00-.37-.37zm-2.397 2.398a.26.26 0 10.368.369.26.26 0 00-.368-.369zm-2.398 2.306a.326.326 0 10.46.46.326.326 0 00-.46-.46zm-2.444 2.351c-.138.138-.184.37 0 .553.184.185.369.185.553 0 .139-.138.185-.368 0-.553-.184-.184-.415-.138-.553 0zM39.9 56.07a.391.391 0 10.553.553.391.391 0 00-.553-.553zm-2.444 2.351a.446.446 0 000 .646.446.446 0 00.645 0 .446.446 0 000-.646.446.446 0 00-.645 0zm-2.398 2.306a.522.522 0 10.738.738.522.522 0 00-.738-.738zm-2.444 2.351a.587.587 0 10.83.83.587.587 0 00-.83-.83zm-2.397 2.306a.653.653 0 000 .922c.23.23.645.277.922 0a.653.653 0 000-.922.654.654 0 00-.922 0zm-2.444 2.352a.724.724 0 000 1.014.724.724 0 001.014 0 .724.724 0 000-1.014.724.724 0 00-1.014 0zm-2.398 2.305a.753.753 0 000 1.107.753.753 0 001.106 0 .753.753 0 000-1.107.793.793 0 00-1.106 0zm-2.444 2.351a.848.848 0 101.2 1.2.848.848 0 00-1.2-1.2zm-2.397 2.306a.891.891 0 000 1.291.891.891 0 001.29 0 .891.891 0 000-1.29.891.891 0 00-1.29 0zM18.09 77.05a.978.978 0 101.383 1.383.978.978 0 00-1.383-1.383zm-2.398 2.305a1.03 1.03 0 000 1.476 1.03 1.03 0 001.476 0 1.03 1.03 0 000-1.476 1.03 1.03 0 00-1.476 0zm-2.398 2.305c-.415.416-.415 1.154 0 1.569.415.414 1.153.414 1.568 0 .415-.415.415-1.153 0-1.568-.415-.415-1.153-.415-1.568 0zm-2.444 2.352a1.169 1.169 0 000 1.66 1.169 1.169 0 001.66 0 1.169 1.169 0 000-1.66 1.169 1.169 0 00-1.66 0zm-2.444 2.26a1.238 1.238 0 000 1.752c.461.46 1.291.46 1.753 0a1.238 1.238 0 000-1.752c-.462-.462-1.292-.462-1.753 0zM6.01 88.67a1.304 1.304 0 101.844 1.844 1.304 1.304 0 00-1.845-1.844zm48.23-51.46c-.092.093-.092.185 0 .277.092.093.184.093.276 0 .093-.092.093-.184 0-.276-.046-.046-.184-.092-.276 0zm-2.352 2.353c-.092.092-.092.184 0 .276.093.093.185.093.277 0 .092-.092.092-.184 0-.276-.092 0-.23-.047-.277 0zM49.49 41.96a.28.28 0 000 .369.28.28 0 00.37 0 .28.28 0 000-.369c-.139-.138-.277-.092-.37 0zm-2.443 2.26c-.139.138-.139.322 0 .46.138.139.322.139.46 0 .14-.138.14-.322 0-.46-.138-.139-.368-.093-.46 0zm-2.397 2.397c-.14.139-.14.323 0 .462.138.138.322.138.46 0 .139-.139.139-.323 0-.462-.138-.138-.322-.138-.46 0zm-2.353 2.352c-.138.138-.138.323 0 .461.139.138.323.138.461 0 .139-.138.139-.323 0-.461-.138-.138-.323-.138-.46 0zm-2.443 2.351a.391.391 0 10.553.554.391.391 0 00-.553-.553zm-2.444 2.26a.521.521 0 10.737.738.521.521 0 00-.737-.738zm-2.398 2.398c-.184.184-.184.553 0 .737.184.185.553.185.738 0 .184-.184.184-.553 0-.737a.514.514 0 00-.738 0zM32.66 58.33a.514.514 0 000 .737c.231.23.554.184.738 0a.514.514 0 000-.738c-.184-.184-.553-.184-.738 0zm-2.443 2.35c-.23.231-.23.6 0 .83.23.231.6.231.83 0a.585.585 0 000-.83c-.185-.276-.6-.23-.83 0zm-2.398 2.306a.653.653 0 000 .922c.277.277.692.23.922 0a.654.654 0 000-.922.653.653 0 00-.922 0zm-2.536 2.26a.848.848 0 101.198 1.199.848.848 0 00-1.198-1.2zm-2.352 2.351a.863.863 0 000 1.2.863.863 0 001.2 0 .863.863 0 000-1.2.863.863 0 00-1.2 0zm-2.444 2.352a.892.892 0 000 1.291.891.891 0 001.291 0 .891.891 0 000-1.291.892.892 0 00-1.29 0zM18.136 72.3a.892.892 0 000 1.292.891.891 0 001.291 0 .891.891 0 000-1.291.891.891 0 00-1.29 0zm-2.444 2.352a.978.978 0 101.383 1.383.978.978 0 00-1.383-1.383zm-2.398 2.306a1.043 1.043 0 101.476 1.475 1.043 1.043 0 00-1.476-1.475zm-2.398 2.305a1.109 1.109 0 101.568 1.568 1.109 1.109 0 00-1.568-1.568zm-2.443 2.352a1.238 1.238 0 101.752 1.752 1.238 1.238 0 10-1.752-1.752zM6.055 83.92a1.308 1.308 0 000 1.845 1.308 1.308 0 001.845 0 1.308 1.308 0 000-1.845c-.6-.507-1.384-.46-1.845 0zm-2.49 2.306a1.337 1.337 0 000 1.936 1.337 1.337 0 001.937 0 1.337 1.337 0 000-1.936 1.377 1.377 0 00-1.937 0zm48.277-51.413a.28.28 0 000 .369.28.28 0 00.37 0 .28.28 0 000-.369.28.28 0 00-.37 0zm-2.352 2.352a.28.28 0 000 .369.28.28 0 00.37 0 .28.28 0 000-.37c-.139-.045-.277-.092-.37 0zm-2.443 2.352a.326.326 0 10.46.46.326.326 0 00-.46-.46zm-2.352 2.351c-.138.138-.138.323 0 .461.138.139.323.139.461 0 .139-.138.139-.323 0-.46-.138-.14-.369-.093-.46 0zm-2.444 2.352a.391.391 0 10.553.553.391.391 0 00-.553-.553zM39.9 46.571a.42.42 0 000 .554.42.42 0 00.553 0 .42.42 0 000-.554c-.185-.184-.415-.138-.553 0zm-2.49 2.306a.522.522 0 10.737.737.522.522 0 00-.737-.737zm-2.352 2.351a.522.522 0 10.738.738.522.522 0 00-.738-.738zm-2.444 2.352c-.23.23-.23.6 0 .83.231.23.6.23.83 0 .23-.23.23-.6 0-.83a.584.584 0 00-.83 0zm-2.351 2.351a.587.587 0 10.83.83.587.587 0 00-.83-.83zm-2.444 2.352a.654.654 0 000 .922c.23.23.692.23.922 0a.653.653 0 000-.922.654.654 0 00-.922 0zm-2.444 2.26a.724.724 0 000 1.014.724.724 0 001.015 0 .724.724 0 000-1.014.724.724 0 00-1.015 0zm-2.444 2.351a.848.848 0 101.199 1.199.848.848 0 00-1.199-1.199zM20.534 65.2c-.323.322-.37.922 0 1.29.322.324.922.37 1.29 0 .323-.322.37-.921 0-1.29-.414-.323-.968-.323-1.29 0zm-2.444 2.351a.892.892 0 000 1.291.891.891 0 001.29 0 .891.891 0 000-1.29c-.276-.37-.921-.37-1.29 0zm-2.453 2.469a.978.978 0 101.588 1.143.978.978 0 00-1.588-1.143zm-2.343 2.234a1.043 1.043 0 101.475 1.476 1.043 1.043 0 00-1.475-1.476zm-2.398 2.306a1.109 1.109 0 101.568 1.568 1.109 1.109 0 00-1.568-1.568zm-2.397 2.305a1.174 1.174 0 101.66 1.66 1.174 1.174 0 00-1.66-1.66zm-2.49 2.306a1.238 1.238 0 101.752 1.752 1.238 1.238 0 000-1.752 1.238 1.238 0 00-1.752 0zm-2.352 2.351a1.308 1.308 0 000 1.845 1.308 1.308 0 001.845 0 1.308 1.308 0 000-1.845 1.308 1.308 0 00-1.845 0zm-2.444 2.352a1.37 1.37 0 101.937 1.937 1.37 1.37 0 00-1.937-1.937zM49.398 32.37a.326.326 0 10.461.46.326.326 0 00-.46-.46zm-2.351 2.351c-.139.138-.139.323 0 .461.138.139.322.139.46 0 .14-.138.14-.323 0-.46-.138-.14-.368-.093-.46 0zm-2.397 2.398a.326.326 0 10.46.46.326.326 0 00-.46-.46zm-2.399 2.305c-.184.185-.138.415 0 .554.184.184.415.138.553 0 .185-.185.139-.415 0-.554a.42.42 0 00-.553 0zm-2.443 2.352a.446.446 0 000 .645.446.446 0 00.645 0 .446.446 0 000-.645.446.446 0 00-.645 0zm-2.398 2.305a.521.521 0 10.737.738.521.521 0 00-.737-.738zm-2.398 2.398a.522.522 0 10.738.738.522.522 0 00-.738-.738zm-2.398 2.306a.585.585 0 000 .83c.231.23.6.23.83 0 .23-.231.23-.6 0-.83a.584.584 0 00-.83 0zm-2.444 2.351a.653.653 0 000 .922c.278.277.646.277.923 0a.653.653 0 000-.922c-.277-.277-.645-.277-.922 0zm-2.397 2.305a.724.724 0 000 1.015.724.724 0 001.014 0 .724.724 0 000-1.015.724.724 0 00-1.014 0zm-2.444 2.352a.753.753 0 000 1.107.754.754 0 001.107 0 .754.754 0 000-1.107.793.793 0 00-1.107 0zm-2.398 2.306a.848.848 0 101.2 1.198.848.848 0 00-1.2-1.198zm-2.397 2.397a.863.863 0 000 1.2.863.863 0 001.199 0 .863.863 0 000-1.2c-.277-.369-.83-.369-1.2 0zm-2.398 2.306a.892.892 0 000 1.29.891.891 0 001.291 0 .891.891 0 000-1.29.892.892 0 00-1.29 0zm-2.444 2.352a1.003 1.003 0 000 1.383 1.003 1.003 0 001.383 0 1.003 1.003 0 000-1.383.96.96 0 00-1.383 0zm-2.352 2.351a1.003 1.003 0 000 1.383 1.003 1.003 0 001.384 0 1.003 1.003 0 000-1.383 1.003 1.003 0 00-1.383 0zm-2.443 2.352a1.043 1.043 0 101.475 1.475 1.043 1.043 0 00-1.475-1.475zm-2.398 2.305a1.109 1.109 0 101.568 1.568 1.109 1.109 0 00-1.568-1.568zm-2.398 2.306a1.174 1.174 0 101.66 1.66 1.174 1.174 0 00-1.66-1.66zM3.657 76.82a1.239 1.239 0 101.753 1.75 1.239 1.239 0 00-1.753-1.752zM1.26 79.125a1.308 1.308 0 000 1.844 1.308 1.308 0 001.844 0 1.308 1.308 0 000-1.844 1.308 1.308 0 00-1.844 0zm-2.444 2.351a1.377 1.377 0 000 1.937c.507.507 1.43.507 1.936 0a1.377 1.377 0 000-1.937 1.377 1.377 0 00-1.936 0zM47 29.972c-.138.138-.138.322 0 .46.139.139.323.139.461 0 .139-.138.185-.276.047-.414-.139-.139-.37-.185-.508-.046zm-2.35 2.351c-.14.139-.14.323 0 .461.138.139.322.139.46 0 .139-.138.139-.322 0-.46-.092-.093-.322-.14-.46 0zm-2.399 2.398a.42.42 0 000 .554.42.42 0 00.553 0 .42.42 0 000-.554c-.184-.184-.415-.138-.553 0zm-2.398 2.305a.446.446 0 000 .646.446.446 0 00.646 0 .446.446 0 000-.646c-.23-.138-.507-.138-.646 0zm-2.443 2.352a.446.446 0 000 .645.446.446 0 00.646 0 .446.446 0 000-.645c-.139-.138-.461-.184-.646 0zm-2.352 2.352a.522.522 0 10.738.738.522.522 0 00-.738-.738zm-2.444 2.351c-.23.23-.23.6 0 .83.231.23.6.23.83 0 .23-.23.23-.6 0-.83a.585.585 0 00-.83 0zm-2.397 2.306c-.23.23-.23.6 0 .83.23.23.6.23.83 0 .23-.23.23-.6 0-.83-.184-.185-.6-.23-.83 0zm-2.461 2.479a.652.652 0 101.058.762.652.652 0 00-1.058-.762zm-2.335 2.224a.717.717 0 101.015 1.014.717.717 0 00-1.015-1.014zm-2.444 2.352a.793.793 0 000 1.106.793.793 0 001.107 0 .793.793 0 000-1.106.753.753 0 00-1.107 0zm-2.397 2.305a.848.848 0 101.199 1.199.848.848 0 00-1.2-1.199zm-2.444 2.352a.863.863 0 000 1.199.863.863 0 001.198 0 .863.863 0 000-1.2c-.276-.368-.83-.368-1.198 0zm-2.398 2.305a.891.891 0 000 1.291.891.891 0 001.291 0 .892.892 0 000-1.29c-.323-.324-.922-.37-1.29 0zm-2.398 2.398a1.003 1.003 0 000 1.383 1.003 1.003 0 001.383 0 1.003 1.003 0 000-1.383c-.369-.461-.968-.415-1.383 0zm-2.397 2.306a1.03 1.03 0 000 1.475 1.03 1.03 0 001.475 0 1.03 1.03 0 000-1.475 1.03 1.03 0 00-1.475 0zM8.498 67.46a1.109 1.109 0 101.568 1.567 1.109 1.109 0 00-1.568-1.568zm-2.397 2.304a1.169 1.169 0 000 1.66 1.169 1.169 0 001.66 0 1.169 1.169 0 000-1.66 1.169 1.169 0 00-1.66 0zM3.703 72.07a1.238 1.238 0 101.752 1.752 1.238 1.238 0 000-1.752c-.553-.461-1.29-.461-1.752 0zM1.26 74.422a1.308 1.308 0 000 1.844 1.308 1.308 0 001.844 0 1.308 1.308 0 000-1.844 1.308 1.308 0 00-1.844 0zm-2.545 2.47a1.37 1.37 0 102.223 1.6 1.37 1.37 0 00-2.223-1.6zm45.888-49.318a.42.42 0 000 .553.42.42 0 00.553 0 .42.42 0 000-.553.42.42 0 00-.553 0zm-2.352 2.351a.42.42 0 000 .554.42.42 0 00.553 0 .42.42 0 000-.553.42.42 0 00-.553 0zm-2.398 2.398a.446.446 0 000 .646.446.446 0 00.646 0 .446.446 0 000-.646.446.446 0 00-.646 0zm-2.397 2.306a.457.457 0 10.645.645.457.457 0 00-.645-.645zm-2.444 2.351c-.184.185-.184.554 0 .738.184.184.553.184.738 0 .184-.184.184-.553 0-.738a.514.514 0 00-.738 0zm-2.352 2.352a.522.522 0 10.738.738.522.522 0 00-.738-.738zm-2.443 2.351c-.23.23-.23.6 0 .83.23.23.6.23.83 0 .23-.23.23-.6 0-.83a.584.584 0 00-.83 0zm-2.398 2.307a.652.652 0 10.922.921.652.652 0 00-.922-.922zm-2.444 2.35a.724.724 0 000 1.015.724.724 0 001.014 0 .724.724 0 000-1.015.724.724 0 00-1.014 0zm-2.398 2.306a.783.783 0 101.107 1.107.783.783 0 00-1.107-1.107zm-2.443 2.352a.863.863 0 000 1.199.863.863 0 001.199 0 .863.863 0 000-1.2c-.323-.322-.83-.368-1.2 0zm-2.352 2.352a.863.863 0 000 1.198.863.863 0 001.199 0 .863.863 0 000-1.199.863.863 0 00-1.2 0zm-2.444 2.35a.891.891 0 000 1.292.891.891 0 001.291 0 .892.892 0 000-1.291c-.323-.415-.922-.369-1.29 0zm-2.398 2.307a.96.96 0 000 1.383 1.003 1.003 0 001.384 0 .96.96 0 000-1.383 1.003 1.003 0 00-1.383 0zm-2.443 2.351a1.043 1.043 0 101.475 1.476 1.043 1.043 0 00-1.475-1.476zM8.545 62.71a1.1 1.1 0 000 1.568 1.1 1.1 0 001.568 0 1.099 1.099 0 000-1.568c-.507-.415-1.153-.415-1.568 0zm-2.444 2.351c-.415.415-.415 1.153 0 1.568.415.415 1.153.415 1.568 0 .415-.415.415-1.153 0-1.568a1.1 1.1 0 00-1.568 0zm-2.398 2.306a1.174 1.174 0 101.66 1.66 1.174 1.174 0 00-1.66-1.66zm-2.397 2.305a1.239 1.239 0 101.752 1.752 1.239 1.239 0 00-1.752-1.752zm-2.398 2.398a1.308 1.308 0 000 1.844 1.308 1.308 0 001.845 0 1.308 1.308 0 000-1.844c-.554-.554-1.338-.507-1.845 0zm43.297-46.894a.446.446 0 000 .646.446.446 0 00.646 0 .446.446 0 000-.646.446.446 0 00-.646 0zm-2.352 2.352a.446.446 0 000 .645.446.446 0 00.646 0 .446.446 0 000-.645c-.23-.138-.507-.138-.646 0zm-2.397 2.397a.446.446 0 000 .646.446.446 0 00.645 0 .446.446 0 000-.646.446.446 0 00-.645 0zm-2.444 2.26c-.23.23-.23.6 0 .83.23.23.6.23.83 0 .23-.23.23-.6 0-.83a.584.584 0 00-.83 0zm-2.444 2.351a.653.653 0 000 .923c.23.23.646.276.923 0a.654.654 0 000-.923c-.231-.23-.692-.23-.923 0zm-2.305 2.398c-.23.23-.23.6 0 .83.23.23.6.23.83 0 .23-.23.23-.6 0-.83a.584.584 0 00-.83 0zm-2.444 2.352a.652.652 0 10.922.922.652.652 0 00-.922-.922zm-2.444 2.259a.753.753 0 000 1.107.753.753 0 001.107 0 .753.753 0 000-1.107.793.793 0 00-1.107 0zm-2.444 2.352a.863.863 0 000 1.199.863.863 0 001.2 0 .863.863 0 000-1.2.863.863 0 00-1.2 0zm-2.351 2.351a.863.863 0 000 1.2.863.863 0 001.199 0 .863.863 0 000-1.2c-.37-.369-.877-.322-1.2 0zm-2.398 2.398a.863.863 0 000 1.2.863.863 0 001.199 0 .863.863 0 000-1.2c-.323-.415-.83-.369-1.199 0zm-2.398 2.306a.891.891 0 000 1.29.891.891 0 001.291 0 .892.892 0 000-1.29c-.369-.37-.968-.323-1.29 0zm-2.49 2.305a.96.96 0 000 1.383.96.96 0 001.383 0 1.003 1.003 0 000-1.383c-.322-.415-.968-.415-1.383 0zm-2.351 2.352a.96.96 0 000 1.383.96.96 0 001.383 0 .96.96 0 000-1.383 1.003 1.003 0 00-1.383 0zm-2.398 2.397a1.03 1.03 0 000 1.476 1.03 1.03 0 001.476 0 1.03 1.03 0 000-1.476 1.03 1.03 0 00-1.476 0zm-2.398 2.306a1.1 1.1 0 000 1.568 1.1 1.1 0 001.568 0 1.1 1.1 0 000-1.568c-.46-.369-1.153-.415-1.568 0zM3.75 62.71c-.416.414-.416 1.152 0 1.567.414.415 1.152.415 1.567 0 .415-.415.415-1.153 0-1.568-.415-.507-1.106-.46-1.568 0zm-2.444 2.26a1.238 1.238 0 101.752 1.752 1.238 1.238 0 000-1.753c-.461-.461-1.291-.461-1.752 0zm-2.352 2.35a1.238 1.238 0 101.752 1.752 1.238 1.238 0 10-1.752-1.751zm40.807-44.588a.522.522 0 10.738.738.522.522 0 00-.738-.738zm-2.305 2.398a.514.514 0 000 .738c.23.23.507.23.738 0a.514.514 0 000-.738.514.514 0 00-.738 0zm-2.49 2.306a.587.587 0 10.83.83.587.587 0 00-.83-.83zm-2.398 2.305a.652.652 0 10.922.922.652.652 0 00-.922-.922zm-2.398 2.398a.724.724 0 000 1.014.724.724 0 001.015 0 .724.724 0 000-1.014.724.724 0 00-1.015 0zm-2.351 2.351a.653.653 0 00.922.922.653.653 0 000-.922c-.23-.23-.692-.23-.922 0zm-2.489 2.306a.863.863 0 000 1.199.863.863 0 001.198 0 .863.863 0 000-1.199.863.863 0 00-1.199 0zm-2.399 2.305a.848.848 0 101.2 1.2.848.848 0 00-1.2-1.2zM20.534 41.5a.863.863 0 000 1.198.863.863 0 001.199 0 .863.863 0 000-1.199c-.277-.369-.83-.369-1.2 0zm-2.352 2.35a.863.863 0 000 1.2.863.863 0 001.199 0 .863.863 0 000-1.2.863.863 0 00-1.2 0zm-2.444 2.352a.891.891 0 000 1.291.891.891 0 001.291 0 .892.892 0 000-1.29c-.323-.416-.922-.37-1.29 0zm-2.398 2.306a.978.978 0 101.384 1.383.978.978 0 00-1.383-1.383zm-2.397 2.398a.978.978 0 101.383 1.383.978.978 0 00-1.383-1.383zm-2.398 2.305a1.043 1.043 0 101.476 1.476 1.043 1.043 0 00-1.476-1.476zm-2.444 2.352a1.109 1.109 0 101.568 1.567A1.109 1.109 0 006.1 55.563zM3.75 57.914a1.1 1.1 0 000 1.568c.414.415 1.152.415 1.567 0a1.1 1.1 0 000-1.568c-.415-.415-1.153-.415-1.568 0zm-2.444 2.352a1.169 1.169 0 000 1.66 1.169 1.169 0 001.66 0 1.169 1.169 0 000-1.66c-.415-.507-1.199-.461-1.66 0zm-2.352 2.351a1.169 1.169 0 000 1.66 1.169 1.169 0 001.66 0 1.169 1.169 0 000-1.66 1.169 1.169 0 00-1.66 0zM37.41 20.38a.521.521 0 10.737.739.521.521 0 00-.737-.738zm-2.398 2.306a.514.514 0 000 .738c.23.23.553.184.738 0a.514.514 0 000-.738c-.185-.184-.553-.184-.738 0zm-2.398 2.398a.587.587 0 10.83.83.587.587 0 00-.83-.83zm-2.444 2.259a.724.724 0 000 1.015.724.724 0 001.015 0 .724.724 0 000-1.015c-.323-.23-.738-.276-1.015 0zm-2.443 2.352a.782.782 0 101.106 1.107.782.782 0 00-1.106-1.107zm-2.306 2.398a.724.724 0 000 1.014.724.724 0 001.015 0 .724.724 0 000-1.014.724.724 0 00-1.015 0zm-2.49 2.305a.863.863 0 000 1.199.863.863 0 001.2 0 .863.863 0 000-1.199.863.863 0 00-1.2 0zm-2.397 2.306c-.323.323-.37.922 0 1.29.322.324.922.37 1.29 0 .323-.322.37-.921 0-1.29-.414-.323-.968-.323-1.29 0zm-2.398 2.397a.892.892 0 000 1.291.892.892 0 001.291 0 .891.891 0 000-1.29.891.891 0 00-1.29 0zm-2.398 2.306a1.003 1.003 0 000 1.383 1.003 1.003 0 001.383 0 1.003 1.003 0 000-1.383c-.415-.323-1.014-.369-1.383 0zm-2.444 2.351a.96.96 0 000 1.384.96.96 0 001.383 0 .96.96 0 000-1.384c-.322-.414-.968-.414-1.383 0zm-2.305 2.398a.978.978 0 101.383 1.383.978.978 0 00-1.383-1.383zm-2.444 2.352a1.043 1.043 0 101.476 1.475 1.043 1.043 0 00-1.476-1.475zm-2.398 2.305c-.415.415-.415 1.153 0 1.568.415.415 1.153.415 1.568 0 .415-.415.415-1.153 0-1.568a1.1 1.1 0 00-1.568 0zM3.75 53.211c-.415.415-.415 1.153 0 1.568.415.415 1.152.415 1.567 0 .415-.415.462-1.2.047-1.614-.462-.461-1.153-.415-1.614.046zm-2.398 2.306a1.169 1.169 0 000 1.66 1.169 1.169 0 001.66 0 1.169 1.169 0 000-1.66 1.169 1.169 0 00-1.66 0zm-2.398 2.397a1.169 1.169 0 000 1.66 1.169 1.169 0 001.66 0 1.169 1.169 0 000-1.66 1.169 1.169 0 00-1.66 0zM34.92 17.891a.653.653 0 000 .922c.276.277.691.23.922 0 .23-.23.23-.691 0-.922a.653.653 0 00-.923 0zm-2.352 2.351a.653.653 0 000 .922.654.654 0 00.922-.922c-.23-.23-.691-.23-.922 0zm-2.444 2.352a.717.717 0 101.014 1.014.717.717 0 00-1.014-1.014zm-2.351 2.352a.753.753 0 000 1.106.753.753 0 001.106 0 .753.753 0 000-1.106c-.369-.277-.83-.277-1.106 0zm-2.49 2.305a.848.848 0 101.198 1.199.848.848 0 00-1.198-1.199zm-2.352 2.352a.863.863 0 000 1.199.863.863 0 001.2 0 .863.863 0 000-1.199.863.863 0 00-1.2 0zm-2.444 2.352a.891.891 0 000 1.29.891.891 0 001.291 0 .891.891 0 000-1.29.891.891 0 00-1.29 0zm-2.351 2.351a.892.892 0 000 1.291.891.891 0 001.291 0 .891.891 0 000-1.29.892.892 0 00-1.29 0zm-2.398 2.398a1.003 1.003 0 000 1.383 1.003 1.003 0 001.383 0 1.003 1.003 0 000-1.383 1.003 1.003 0 00-1.383 0zm-2.444 2.259a1.043 1.043 0 101.476 1.475 1.043 1.043 0 00-1.476-1.475zm-2.351 2.444a.96.96 0 000 1.383.96.96 0 001.383 0 .96.96 0 000-1.383c-.323-.415-.968-.415-1.383 0zm-2.398 2.305a1.043 1.043 0 101.476 1.476 1.043 1.043 0 00-1.476-1.476zm-2.444 2.352c-.415.415-.415 1.153 0 1.568.415.415 1.2.46 1.614.046.415-.415.415-1.153 0-1.568-.415-.415-1.153-.507-1.614-.046zM3.75 48.416c-.415.415-.415 1.152 0 1.567.415.415 1.152.508 1.614.047.415-.416.415-1.153 0-1.568-.415-.415-1.2-.461-1.614-.046zm-2.398 2.397a1.109 1.109 0 101.567 1.568 1.109 1.109 0 00-1.567-1.568zM-1 53.165a1.169 1.169 0 000 1.66 1.169 1.169 0 001.66 0 1.169 1.169 0 000-1.66 1.169 1.169 0 00-1.66 0zm33.522-37.672a.724.724 0 000 1.014.724.724 0 001.015 0 .724.724 0 000-1.014.724.724 0 00-1.015 0zm-2.352 2.352a.724.724 0 000 1.014.724.724 0 001.015 0 .724.724 0 000-1.014c-.277-.277-.784-.23-1.015 0zm-2.443 2.351a.783.783 0 101.107 1.107.783.783 0 00-1.107-1.107zm-2.352 2.352a.753.753 0 000 1.107.753.753 0 001.106 0 .753.753 0 000-1.107.793.793 0 00-1.106 0zM22.931 24.9a.863.863 0 000 1.198.863.863 0 001.2 0 .863.863 0 000-1.198.863.863 0 00-1.2 0zm-2.397 2.305a.913.913 0 101.29 1.291.913.913 0 00-1.29-1.291zm-2.398 2.398a.892.892 0 000 1.29.891.891 0 001.291 0 .891.891 0 000-1.29.892.892 0 00-1.29 0zm-2.398 2.306a.978.978 0 101.384 1.383.978.978 0 00-1.384-1.384zm-2.398 2.397a.978.978 0 101.384 1.384.978.978 0 00-1.383-1.384zm-2.397 2.305a1.043 1.043 0 101.475 1.476 1.043 1.043 0 00-1.475-1.476zm-2.444 2.352a1.1 1.1 0 000 1.568c.461.46 1.107.46 1.568 0a1.099 1.099 0 000-1.568 1.1 1.1 0 00-1.568 0zm-2.352 2.352a1.109 1.109 0 101.568 1.568 1.109 1.109 0 00-1.568-1.568zM3.75 43.712c-.416.415-.416 1.153 0 1.568.414.415 1.152.415 1.567 0 .415-.415.415-1.153 0-1.568a1.1 1.1 0 00-1.568 0zm-2.398 2.306a1.174 1.174 0 101.66 1.66 1.174 1.174 0 00-1.66-1.66zm-2.398 2.398a1.169 1.169 0 000 1.66 1.169 1.169 0 001.66 0 1.169 1.169 0 000-1.66 1.169 1.169 0 00-1.66 0zm31.17-35.32a.724.724 0 000 1.014.724.724 0 001.015 0 .724.724 0 000-1.014.724.724 0 00-1.015 0zm-2.351 2.351a.724.724 0 000 1.014.724.724 0 001.014 0 .724.724 0 000-1.014.724.724 0 00-1.014 0zm-2.444 2.352a.783.783 0 101.107 1.106.783.783 0 00-1.107-1.106zm-2.398 2.305a.863.863 0 000 1.199.863.863 0 001.2 0 .863.863 0 000-1.2.863.863 0 00-1.2 0zm-2.444 2.352a.891.891 0 000 1.29.892.892 0 001.291 0 .891.891 0 000-1.29c-.322-.323-.922-.37-1.29 0zm-2.351 2.351a.913.913 0 101.29 1.291.913.913 0 00-1.29-1.29zm-2.398 2.398a1.003 1.003 0 000 1.383 1.003 1.003 0 001.383 0 1.003 1.003 0 000-1.383.96.96 0 00-1.383 0zM13.34 29.51a1.03 1.03 0 000 1.476 1.03 1.03 0 001.476 0 1.03 1.03 0 000-1.476c-.415-.415-1.107-.368-1.476 0zm-2.443 2.352a1.03 1.03 0 000 1.476 1.03 1.03 0 001.475 0 1.03 1.03 0 000-1.476c-.369-.368-1.06-.415-1.475 0zm-2.398 2.306c-.415.415-.415 1.153 0 1.568.415.415 1.153.415 1.568 0 .415-.415.415-1.153 0-1.568-.415-.415-1.153-.415-1.568 0zm-2.398 2.397a1.169 1.169 0 000 1.66 1.169 1.169 0 001.66 0 1.169 1.169 0 000-1.66 1.169 1.169 0 00-1.66 0zM3.75 38.917a1.099 1.099 0 000 1.568 1.1 1.1 0 001.567 0 1.099 1.099 0 000-1.568c-.415-.415-1.153-.415-1.568 0zm-2.445 2.352a1.169 1.169 0 000 1.66 1.169 1.169 0 001.66 0 1.169 1.169 0 000-1.66c-.415-.508-1.198-.462-1.66 0zm-2.351 2.351a1.169 1.169 0 000 1.66 1.169 1.169 0 001.66 0 1.169 1.169 0 000-1.66 1.169 1.169 0 00-1.66 0zm28.691-32.825a.783.783 0 101.27.914.783.783 0 00-1.27-.914zm-2.27 2.255a.753.753 0 000 1.106.753.753 0 001.106 0 .753.753 0 000-1.107.793.793 0 00-1.106 0zm-2.444 2.351a.848.848 0 101.2 1.199.848.848 0 00-1.2-1.199zm-2.443 2.259a1.003 1.003 0 000 1.384 1.003 1.003 0 001.383 0 1.003 1.003 0 000-1.384 1.003 1.003 0 00-1.383 0zm-2.444 2.352a1.043 1.043 0 101.475 1.476 1.043 1.043 0 00-1.475-1.476zm-2.306 2.398a.978.978 0 101.383 1.383.978.978 0 00-1.383-1.383zm-2.444 2.351a1.03 1.03 0 000 1.476 1.03 1.03 0 001.476 0 1.03 1.03 0 000-1.476 1.03 1.03 0 00-1.476 0zM10.85 27.02a1.174 1.174 0 101.66 1.66 1.174 1.174 0 00-1.66-1.66zm-2.397 2.398a1.169 1.169 0 000 1.66 1.169 1.169 0 001.66 0 1.169 1.169 0 000-1.66 1.169 1.169 0 00-1.66 0zm-2.479 2.495a1.174 1.174 0 101.906 1.372 1.174 1.174 0 00-1.906-1.371zm-2.271 2.255a1.169 1.169 0 000 1.66 1.169 1.169 0 001.66 0 1.169 1.169 0 000-1.66 1.169 1.169 0 00-1.66 0zM1.352 36.52a1.174 1.174 0 101.66 1.66 1.174 1.174 0 00-1.66-1.66zm-2.398 2.397a1.174 1.174 0 101.66 1.66 1.174 1.174 0 00-1.66-1.66zM25.283 8.254a.863.863 0 000 1.199c.369.369.922.369 1.245.046a.863.863 0 000-1.199c-.369-.369-.922-.369-1.245-.046zm-2.352 2.352a.863.863 0 000 1.199.863.863 0 001.2 0 .863.863 0 000-1.2.863.863 0 00-1.2 0zm-2.489 2.305a1.03 1.03 0 000 1.476 1.03 1.03 0 001.475 0 1.03 1.03 0 000-1.476 1.03 1.03 0 00-1.476 0zm-2.398 2.305a1.03 1.03 0 000 1.476 1.03 1.03 0 001.475 0 1.03 1.03 0 000-1.476c-.369-.368-1.06-.415-1.475 0zm-2.398 2.398c-.415.415-.415 1.153 0 1.568.415.415 1.153.415 1.568 0 .415-.415.415-1.153 0-1.568a1.099 1.099 0 00-1.568 0zm-2.352 2.352a1.03 1.03 0 000 1.475 1.03 1.03 0 001.476 0 1.03 1.03 0 000-1.475 1.03 1.03 0 00-1.476 0zm-2.444 2.351a1.174 1.174 0 101.66 1.66 1.174 1.174 0 00-1.66-1.66zm-2.397 2.306a1.238 1.238 0 101.752 1.752c.507-.507.507-1.245 0-1.752-.553-.461-1.291-.461-1.752 0zM6.055 27.02a1.238 1.238 0 101.752 1.752 1.238 1.238 0 000-1.751c-.507-.508-1.244-.508-1.752 0zm-2.352 2.352a1.238 1.238 0 101.752 1.752 1.238 1.238 0 000-1.752c-.553-.46-1.29-.46-1.752 0zM1.306 31.77a1.238 1.238 0 101.752 1.752c.507-.507.507-1.245 0-1.752-.507-.507-1.245-.507-1.752 0zm-2.398 2.305a1.308 1.308 0 000 1.845 1.308 1.308 0 001.845 0 1.308 1.308 0 000-1.845c-.554-.46-1.338-.507-1.845 0zM22.885 5.856a.913.913 0 101.29 1.291.913.913 0 00-1.29-1.29zm-2.351 2.352a.891.891 0 000 1.29.891.891 0 001.29 0 .891.891 0 000-1.29c-.368-.37-.968-.323-1.29 0zM18.09 10.56a1.03 1.03 0 000 1.475 1.03 1.03 0 001.475 0 1.03 1.03 0 000-1.476 1.03 1.03 0 00-1.476 0zm-2.444 2.259c-.415.415-.415 1.153 0 1.568.415.415 1.153.415 1.568 0 .415-.415.415-1.153 0-1.568-.415-.415-1.153-.415-1.568 0zm-2.444 2.351a1.169 1.169 0 000 1.66 1.169 1.169 0 001.66 0 1.169 1.169 0 000-1.66 1.169 1.169 0 00-1.66 0zm-2.306 2.398a1.108 1.108 0 101.568 1.568 1.108 1.108 0 00-1.568-1.568zM8.452 19.92a1.174 1.174 0 101.66 1.66 1.174 1.174 0 00-1.66-1.66zm-2.397 2.305a1.239 1.239 0 101.752 1.752 1.239 1.239 0 00-1.752-1.752zm-2.444 2.352a1.308 1.308 0 000 1.844 1.308 1.308 0 001.845 0 1.308 1.308 0 000-1.844 1.308 1.308 0 00-1.845 0zM1.26 26.928a1.304 1.304 0 101.844 1.845 1.304 1.304 0 00-1.844-1.845zm-2.398 2.398a1.308 1.308 0 000 1.845 1.308 1.308 0 001.844 0 1.308 1.308 0 000-1.845 1.308 1.308 0 00-1.844 0zm21.533-25.96a1.1 1.1 0 000 1.568 1.1 1.1 0 001.568 0 1.1 1.1 0 000-1.568 1.099 1.099 0 00-1.568 0zm-2.352 2.352a1.1 1.1 0 000 1.568 1.1 1.1 0 001.568 0 1.1 1.1 0 000-1.568c-.507-.415-1.153-.415-1.568 0zm-2.397 2.398a1.108 1.108 0 101.567 1.567 1.108 1.108 0 00-1.567-1.567zm-2.444 2.259a1.169 1.169 0 000 1.66 1.169 1.169 0 001.66 0 1.169 1.169 0 000-1.66c-.415-.415-1.199-.461-1.66 0zm-2.398 2.398a1.238 1.238 0 101.752 1.752 1.238 1.238 0 000-1.752c-.507-.508-1.244-.508-1.752 0zm-2.397 2.305a1.308 1.308 0 000 1.844 1.308 1.308 0 001.844 0 1.308 1.308 0 000-1.844c-.553-.461-1.337-.507-1.844 0zM5.963 17.43a1.308 1.308 0 000 1.844 1.308 1.308 0 001.844 0 1.308 1.308 0 000-1.844 1.308 1.308 0 00-1.844 0zm-2.352 2.351a1.308 1.308 0 000 1.845 1.308 1.308 0 001.845 0 1.308 1.308 0 000-1.845 1.308 1.308 0 00-1.845 0zM1.213 22.18a1.377 1.377 0 000 1.936 1.377 1.377 0 001.937 0 1.377 1.377 0 000-1.937 1.337 1.337 0 00-1.937 0zm-2.351 2.35a1.337 1.337 0 000 1.937 1.337 1.337 0 001.936 0 1.337 1.337 0 000-1.936 1.377 1.377 0 00-1.936 0zM17.997.969a1.109 1.109 0 101.568 1.567A1.109 1.109 0 0017.997.97zM15.646 3.32c-.415.415-.415 1.153 0 1.568.415.415 1.153.415 1.568 0 .415-.415.415-1.153 0-1.568-.415-.415-1.153-.415-1.568 0zm-2.444 2.352a1.174 1.174 0 101.66 1.66 1.174 1.174 0 00-1.66-1.66zm-2.398 2.305a1.238 1.238 0 101.752 1.752 1.238 1.238 0 000-1.752c-.507-.415-1.29-.46-1.752 0zM8.36 10.329a1.304 1.304 0 101.845 1.844 1.304 1.304 0 00-1.844-1.844zM6.009 12.68a1.304 1.304 0 101.844 1.845 1.304 1.304 0 00-1.844-1.844zm-2.444 2.352a1.377 1.377 0 000 1.937 1.377 1.377 0 001.937 0 1.377 1.377 0 000-1.937 1.377 1.377 0 00-1.937 0zm-2.351 2.352A1.37 1.37 0 103.15 19.32a1.37 1.37 0 00-1.937-1.936zm-2.398 2.397a1.377 1.377 0 000 1.937c.507.507 1.43.507 1.936 0a1.378 1.378 0 000-1.937 1.377 1.377 0 00-1.936 0z"/></g><defs><clipPath id="clip0"><path fill="#fff" transform="rotate(135 24.41 40.336)" d="M0 0h72.969v72.969H0z"/></clipPath></defs></svg>