<svg width="355" height="315" fill="none" xmlns="http://www.w3.org/2000/svg"><path d="M325.065 96.106s.214.214 0 0c0 .428.214.214.214.214s.214-.214-.214-.214c.428 0 0 0 0 0zm-10.909 10.91c-.214.213 0 .427 0 .427.214.214.428 0 .428 0 .213-.214 0-.427 0-.427-.214-.214-.428 0-.428 0zm-11.338 10.909c-.213.214-.213.642 0 .856.214.214.642.214.856 0 .214-.214.214-.642 0-.856-.214-.214-.642-.214-.856 0zm-10.909 10.91c-.214.214-.214.642 0 .856.214.214.641.214.855 0 .214-.214.214-.642 0-.856-.214-.214-.641-.214-.855 0zm-11.338 10.91c-.427.428-.427.856 0 1.283.428.428.856.428 1.284 0 .428-.427.428-.855 0-1.283-.428-.428-.856-.428-1.284 0zm-11.123 10.695c-.428.428-.428 1.284 0 1.712.427.427 1.283.427 1.711 0 .428-.428.428-1.284 0-1.712-.428-.428-1.284-.428-1.711 0zm-11.338 10.91c-.641.642-.641 1.498 0 2.139.642.642 1.498.642 2.14 0 .641-.641.641-1.497 0-2.139-.428-.855-1.498-.641-2.14 0zm-10.909 10.91c-.642.641-.642 1.497 0 2.139.642.641 1.497.641 2.139 0 .642-.642.642-1.498 0-2.139-.642-.642-1.497-.642-2.139 0zm-11.338 10.909a1.815 1.815 0 102.566 2.567 1.815 1.815 0 00-2.566-2.567zm-11.123 10.696c-.856.856-.856 2.14 0 2.995.856.856 2.139.856 2.995 0 .855-.855.855-2.139 0-2.995-.856-.855-2.139-.855-2.995 0zm-11.337 10.91a2.419 2.419 0 103.422 3.423 2.42 2.42 0 00-3.422-3.423zm-11.338 10.481a3.025 3.025 0 104.277 4.279 3.025 3.025 0 00-4.277-4.279zm-11.124 11.124c-1.283 1.283-1.069 3.209 0 4.278 1.284 1.284 3.209 1.07 4.279 0 1.283-1.283 1.069-3.208 0-4.278-1.07-1.497-2.995-1.284-4.279 0zm-11.123 10.696c-1.284 1.283-1.284 3.422 0 4.706 1.283 1.283 3.422 1.283 4.706 0 1.283-1.284 1.283-3.423 0-4.706-1.284-1.284-3.423-1.284-4.706 0zm-11.338 10.909c-1.497 1.498-1.497 3.637 0 5.134 1.498 1.498 3.637 1.498 5.134 0 1.498-1.497 1.498-3.636 0-5.134-1.497-1.497-3.636-1.497-5.134 0zm-11.123 10.697c-1.497 1.497-1.497 4.064 0 5.561 1.497 1.498 4.064 1.498 5.562 0 1.497-1.497 1.497-4.064 0-5.561-1.498-1.498-4.065-1.498-5.562 0zm-11.124 10.695c-1.711 1.711-1.711 4.278 0 5.989 1.712 1.712 4.279 1.712 5.99 0 1.711-1.711 1.711-4.278 0-5.989-1.711-1.712-4.492-1.498-5.99 0zm-11.337 10.909c-1.711 1.712-1.711 4.707 0 6.418 1.711 1.711 4.706 1.711 6.417 0 1.712-1.711 1.712-4.706 0-6.418-1.711-1.711-4.706-1.711-6.417 0zm-11.124 10.696c-1.925 1.925-1.925 4.92 0 6.845 1.926 1.925 4.92 1.925 6.846 0 1.925-1.925 1.925-4.92 0-6.845-1.926-1.926-5.134-1.712-6.846 0zm-11.337 10.91c-1.925 1.925-1.925 5.348 0 7.273 1.925 1.925 5.348 1.925 7.273 0 1.925-1.925 1.925-5.348 0-7.273-1.925-1.925-5.348-1.925-7.273 0zM314.156 85.197c0 .427.214.213.214.213s.214-.213-.214-.213c.214-.214 0 0 0 0zm-11.124 10.695c-.214.214 0 .428 0 .428.214.214.428 0 .428 0 .214-.214 0-.427 0-.427h-.428zm-11.337 10.91c-.214.214-.214.642 0 .856.214.214.642.214.856 0 .213-.214.213-.642 0-.856-.214-.214-.642-.214-.856 0zm-10.91 10.91c-.214.214-.214.642 0 .855.214.214.642.214.856 0 .214-.213.214-.641 0-.855-.214-.214-.642-.214-.856 0zm-11.123 11.123c-.428.428-.428.855 0 1.283.428.428.855.428 1.283 0 .428-.428.428-.855 0-1.283-.428-.428-.855-.428-1.283 0zm-11.124 10.696c-.428.428-.428 1.284 0 1.711.428.428 1.284.428 1.712 0 .427-.427.427-1.283 0-1.711-.642-.642-1.284-.428-1.712 0zm-11.551 10.696c-.642.642-.642 1.497 0 2.139.642.642 1.497.642 2.139 0 .642-.642.642-1.497 0-2.139-.214-.642-1.497-.642-2.139 0zm-10.91 10.909c-.641.642-.641 1.498 0 2.14.642.641 1.498.641 2.139 0 .642-.642.642-1.498 0-2.14-.427-.427-1.497-.641-2.139 0zm-11.123 11.124a1.815 1.815 0 102.566 2.567 1.815 1.815 0 00-2.566-2.567zm-11.338 10.482c-.855.856-.855 2.139 0 2.995.856.855 2.139.855 2.995 0 .856-.856.856-2.139 0-2.995-.642-.642-2.139-.856-2.995 0zm-11.123 11.123a2.42 2.42 0 103.424 3.423 2.42 2.42 0 00-3.424-3.423zm-11.338 10.481a3.025 3.025 0 104.277 4.28 3.025 3.025 0 00-4.277-4.28zm-11.337 10.911c-1.284 1.283-1.07 3.209 0 4.278 1.283 1.284 3.209 1.07 4.278 0 1.284-1.283 1.07-3.209 0-4.278-.855-1.284-2.995-1.284-4.278 0zm-10.91 10.909c-1.283 1.283-1.283 3.423 0 4.706 1.284 1.284 3.423 1.284 4.706 0 1.284-1.283 1.284-3.423 0-4.706-1.283-1.283-3.422-1.283-4.706 0zm-11.337 10.909c-1.498 1.497-1.498 3.637 0 5.134 1.497 1.497 3.636 1.497 5.134 0 1.497-1.497 1.497-3.636 0-5.134-1.498-1.497-3.637-1.497-5.134 0zm-11.124 10.696c-1.497 1.498-1.497 4.065 0 5.562 1.498 1.498 4.065 1.498 5.562 0 1.497-1.497 1.497-4.064 0-5.562-1.711-1.711-4.064-1.497-5.562 0zm-11.123 10.697c-1.711 1.711-1.711 4.278 0 5.989 1.711 1.711 4.278 1.712 5.989 0 1.712-1.711 1.712-4.278 0-5.989-1.711-1.712-4.492-1.498-5.989 0zm-11.338 10.908c-1.711 1.712-1.711 4.706 0 6.418 1.712 1.711 4.706 1.711 6.418 0 1.711-1.712 1.711-4.706 0-6.418-1.712-1.711-4.706-1.711-6.418 0zm-11.123 10.696c-1.925 1.926-1.925 4.921 0 6.846 1.925 1.925 4.92 1.925 6.845 0 1.925-1.925 1.925-4.92 0-6.846-1.925-1.925-5.134-1.711-6.845 0zm-11.338 10.91c-1.925 1.925-1.925 5.347 0 7.273 1.926 1.925 5.348 1.925 7.273 0 1.926-1.926 1.926-5.348 0-7.273-2.139-2.14-5.347-1.926-7.273 0zM325.066 52.04a.303.303 0 10.428.428.303.303 0 00-.428-.428zM314.37 63.164c-.214.214-.214.214 0 0 0 .428.214.214.214.214l-.214-.214zm-11.338 10.909c-.214.214 0 .428 0 .428.214.214.428 0 .428 0 .214-.214 0-.428 0-.428-.214-.214-.214-.214-.428 0zm-11.123 10.696c-.214.213-.214.641 0 .855.214.214.641.214.855 0 .214-.214.214-.642 0-.855-.214-.215-.641-.214-.855 0zm-11.338 10.909c-.427.428-.427.856 0 1.284.428.427.856.427 1.284 0 .428-.428.428-.856 0-1.284-.428-.428-.856-.428-1.284 0zm-10.909 10.91c-.428.428-.428.856 0 1.284.428.428.855.428 1.283 0 .428-.428.428-.856 0-1.284-.428-.428-1.069-.214-1.283 0zm-11.338 10.909a1.21 1.21 0 101.711 1.71 1.21 1.21 0 00-1.711-1.71zm-11.123 10.697c-.642.641-.642 1.497 0 2.139.642.642 1.497.642 2.139 0 .642-.642.642-1.498 0-2.139-.642-.642-1.497-.642-2.139 0zm-11.338 10.909c-.641.642-.641 1.925 0 2.567.642.642 1.926.642 2.567 0 .642-.642.642-1.925 0-2.567-.641-.642-1.925-.642-2.567 0zm-10.909 10.909c-.642.642-.642 1.926 0 2.567.641.642 1.925.642 2.567 0 .641-.641.641-1.925 0-2.567-.642-.641-1.926-.641-2.567 0zm-11.338 10.91c-.855.856-.855 2.139 0 2.995.856.855 2.139.855 2.995 0 .856-.856.856-2.139 0-2.995-.856-.856-2.139-.856-2.995 0zm-11.123 10.696c-.856.855-.856 2.567 0 3.422.856.856 2.567.856 3.423 0 .855-.855.855-2.567 0-3.422-.856-.856-2.567-.856-3.423 0zm-11.338 10.909a2.724 2.724 0 103.853 3.851 2.724 2.724 0 00-3.853-3.851zm-11.123 10.697a3.024 3.024 0 104.278 4.278 3.026 3.026 0 00-4.278-4.278zm-11.338 10.909c-1.283 1.283-1.283 3.422 0 4.706 1.284 1.283 3.423 1.283 4.707 0 1.283-1.284 1.283-3.423 0-4.706-1.07-1.498-3.209-1.498-4.707 0zm-11.502 11.14a3.63 3.63 0 105.89 4.243 3.63 3.63 0 00-5.89-4.243zm-10.745 10.679c-1.497 1.497-1.283 3.85 0 5.134 1.498 1.497 3.851 1.283 5.134 0 1.284-1.284 1.284-3.85 0-5.134-1.283-1.711-3.636-1.497-5.134 0zm-11.123 10.696c-1.498 1.497-1.498 4.064 0 5.562 1.497 1.497 4.064 1.497 5.562 0 1.497-1.498 1.497-4.065 0-5.562-1.498-1.498-4.065-1.498-5.562 0zm-11.338 10.482c-1.925 1.925-1.925 4.92 0 6.845 1.926 1.925 4.92 1.925 6.846 0 1.925-1.925 1.925-4.92 0-6.845-2.353-1.926-5.134-1.712-6.846 0zm-11.337 10.909c-1.925 1.925-2.139 5.134 0 7.273 2.139 2.139 5.134 2.139 7.273 0 1.925-1.925 2.139-5.134 0-7.273-2.139-2.139-5.348-1.925-7.273 0zm-11.124 10.696a5.422 5.422 0 000 7.7 5.421 5.421 0 007.701 0 5.422 5.422 0 000-7.7c-2.567-2.14-5.776-1.926-7.701 0zm-11.337 10.91c-2.14 2.139-2.353 5.775 0 8.128 2.14 2.139 5.776 2.353 8.129 0 2.139-2.139 2.353-5.775 0-8.128-2.353-2.353-5.99-2.14-8.129 0zM313.942 40.916c-.214.214 0 .428 0 .428.214.214.428 0 .428 0v-.428s-.214-.213-.428 0zm-10.91 10.911c-.214.214 0 .427 0 .427 0 .428.428.428.642.214.214-.214 0-.428 0-.428-.214-.213-.642-.213-.642-.213zM291.909 62.95a.604.604 0 10.855.856.604.604 0 10-.855-.856zm-11.124 10.696c-.214.214-.214.642 0 .856.214.214.642.214.856 0 .214-.214.214-.642 0-.856-.214-.214-.642-.214-.856 0zm-11.337 10.909a1.21 1.21 0 101.71 1.711 1.21 1.21 0 00-1.71-1.711zm-10.91 10.909a1.211 1.211 0 101.714 1.712 1.211 1.211 0 00-1.714-1.712zm-11.337 10.91c-.642.642-.642 1.498 0 2.139.641.642 1.497.642 2.139 0 .641-.641.641-1.497 0-2.139-.642-.641-1.498-.641-2.139 0zm-11.124 10.696c-.641.642-.641 1.497 0 2.139.642.642 1.498.642 2.139 0 .642-.642.642-1.497 0-2.139-.641-.642-1.497-.642-2.139 0zm-11.337 10.91c-.856.855-.642 1.925 0 2.567.641.641 1.925.641 2.567 0 .855-.856.641-1.926 0-2.567-.642-.642-1.712-.856-2.567 0zm-10.91 10.909c-.855.856-.855 2.139 0 2.995.856.856 2.139.856 2.995 0 .856-.856.856-2.139 0-2.995-.856-.855-2.353-.641-2.995 0zm-11.337 10.91c-.856.855-.856 2.139 0 2.994.855.856 2.139.856 2.995 0 .855-.855.855-2.139 0-2.995-.856-.855-2.14-.855-2.995.001zm-10.91 10.909a2.42 2.42 0 103.424 3.423 2.42 2.42 0 00-3.424-3.423zm-11.551 10.696a2.71 2.71 0 000 3.85 2.71 2.71 0 003.85 0 2.71 2.71 0 000-3.85 2.71 2.71 0 00-3.85 0zM168.908 182.1c-1.283 1.283-1.283 3.422 0 4.706 1.284 1.283 3.423 1.283 4.706 0 1.284-1.284 1.284-3.423 0-4.706-1.283-1.284-3.422-1.284-4.706 0zm-11.337 10.91c-1.498 1.497-1.498 3.636 0 5.134 1.497 1.497 3.636 1.069 4.92-.214 1.497-1.498 1.497-3.637 0-5.134-1.498-1.498-3.423-1.284-4.92.214zm-11.124 10.695c-1.497 1.497-1.497 3.637 0 5.134 1.498 1.497 3.637 1.497 5.134 0 1.498-1.497 1.498-3.637 0-5.134-1.497-1.497-3.636-1.497-5.134 0zm-11.123 11.123a3.933 3.933 0 105.562 5.562 3.933 3.933 0 00-5.562-5.562zm-11.338 10.482c-1.711 1.712-1.711 4.279 0 5.99 1.712 1.711 4.279 1.711 5.99 0 1.711-1.711 1.711-4.278 0-5.99-1.497-1.497-4.278-1.711-5.99 0zm-11.123 10.696c-1.925 1.925-1.925 4.92 0 6.845 1.925 1.926 4.92 1.926 6.845 0 1.925-1.925 1.925-4.92 0-6.845-1.925-1.925-5.134-1.711-6.845 0zm-11.552 10.696c-1.925 1.926-1.925 5.348 0 7.273 1.926 1.926 5.348 1.926 7.273 0 1.926-1.925 1.926-5.347 0-7.273-1.925-1.925-5.134-2.139-7.273 0zm-11.123 10.696a5.422 5.422 0 000 7.7 5.421 5.421 0 007.7 0 5.422 5.422 0 000-7.7c-1.924-1.926-5.56-2.14-7.7 0zm-11.124 11.123a5.747 5.747 0 108.129 8.129 5.747 5.747 0 00-8.129-8.129zM302.818 29.793c-.214.214-.214.642 0 .855.214.214.642.214.856 0 .214-.213.214-.641 0-.855-.214-.214-.642-.214-.856 0zm-10.909 10.91c-.214.213-.214.641 0 .855.214.214.641.214.855 0 .214-.214.214-.642 0-.855-.214-.214-.641-.214-.855 0zm-11.338 10.91c-.427.428-.427.855 0 1.283.428.428.856.428 1.284 0 .428-.428.428-.855 0-1.283-.214-.214-.856-.428-1.284 0zm-10.909 10.908c-.428.428-.428 1.284 0 1.712.428.427 1.283.427 1.711 0 .428-.428.428-1.284 0-1.712-.856-.428-1.283-.428-1.711 0zm-11.338 10.91c-.427.428-.427 1.284 0 1.712.428.428 1.284.428 1.712 0 .428-.428.428-1.284 0-1.712-.428-.427-1.284-.427-1.712 0zm-11.123 10.696c-.642.642-.642 1.497 0 2.139.641.642 1.497.642 2.139 0 .641-.642.641-1.498 0-2.14-.642-.641-1.712-.427-2.139 0zM236.077 95.25c-.642.642-.856 1.712 0 2.568.642.641 1.711.855 2.567 0 .642-.642.856-1.712 0-2.567-.856-.856-1.925-.642-2.567 0zm-11.123 10.697c-.642.641-.642 1.925 0 2.566.641.642 1.925.642 2.567 0 .641-.641.641-1.925 0-2.567-.642-.641-1.926-.641-2.567.001zm-11.338 10.909c-.855.855-.855 2.139 0 2.994.856.856 2.139.856 2.995 0 .856-.855.856-2.139 0-2.994-.856-.856-2.139-.856-2.995 0zm-11.123 10.696c-.856.856-.856 2.567 0 3.422.856.856 2.567.856 3.423 0 .855-.855.855-2.566 0-3.422-.856-.856-2.567-.856-3.423 0zm-11.338 10.909a2.713 2.713 0 000 3.851 2.711 2.711 0 003.851 0 2.713 2.713 0 000-3.851 2.713 2.713 0 00-3.851 0zm-11.123 10.696c-1.07 1.069-1.284 2.995 0 4.278 1.069 1.07 2.994 1.284 4.278 0 1.069-1.07 1.283-2.995 0-4.278-1.07-1.07-3.209-1.07-4.278 0zm-11.338 10.909c-1.283 1.284-1.283 3.423 0 4.706 1.284 1.284 3.423 1.284 4.706 0 1.284-1.283 1.284-3.422 0-4.706-1.283-1.283-3.422-1.283-4.706 0zm-11.123 10.696c-1.498 1.498-1.498 3.637 0 5.134 1.497 1.497 3.636 1.497 5.134 0 1.497-1.497 1.497-3.636 0-5.134-1.284-1.283-3.851-1.283-5.134 0zm-11.338 10.91c-1.497 1.497-1.497 4.064 0 5.562 1.498 1.497 4.065 1.497 5.562 0 1.498-1.498 1.498-4.065 0-5.562-1.497-1.498-4.064-1.498-5.562 0zm-11.123 10.696c-1.711 1.711-1.711 4.278 0 5.99 1.711 1.711 4.278 1.711 5.99 0 1.711-1.712 1.711-4.279 0-5.99-1.712-1.711-4.279-1.711-5.99 0zm-11.338 10.909c-1.711 1.711-1.711 4.706 0 6.417 1.712 1.711 4.707 1.711 6.418 0 1.711-1.711 1.711-4.706 0-6.417-1.711-1.712-4.492-1.926-6.418 0zm-11.123 10.696c-1.925 1.925-1.925 4.92 0 6.845 1.925 1.925 4.92 1.925 6.845 0 1.925-1.925 1.925-4.92 0-6.845-1.925-1.925-4.92-1.925-6.845 0zm-11.124 10.696c-1.925 1.925-1.925 5.347 0 7.273 1.926 1.925 5.348 1.925 7.273 0 1.926-1.926 1.926-5.348 0-7.273-1.925-1.926-5.347-1.926-7.273 0zm-11.337 10.909a5.423 5.423 0 000 7.701 5.423 5.423 0 007.7 0 5.423 5.423 0 000-7.701 5.423 5.423 0 00-7.7 0zm-11.123 10.697c-2.353 2.353-2.14 5.989 0 8.128 2.353 2.353 5.99 2.139 8.128 0 2.353-2.353 2.14-5.989 0-8.128-2.139-2.14-5.99-2.14-8.128 0zm-11.338 10.908c-2.353 2.353-2.353 6.204 0 8.557 2.353 2.353 6.203 2.353 8.556 0 2.353-2.353 2.353-6.204 0-8.557-2.353-2.353-6.203-2.353-8.556 0zm224.182-238.3a.604.604 0 10.855.856.604.604 0 10-.855-.856zM280.785 29.58c-.214.213-.214.641 0 .855.214.214.642.642 1.07.214.214-.214.214-.642 0-.856-.214-.213-.856-.427-1.07-.213zm-11.123 11.123c-.428.427-.428.855 0 1.283.428.428.855.428 1.283 0 .428-.428.428-.856 0-1.283-.428-.428-.855-.428-1.283 0zm-11.124 10.696a1.211 1.211 0 101.714 1.711 1.211 1.211 0 00-1.714-1.711zm-11.123 11.123a1.21 1.21 0 101.71 1.712 1.21 1.21 0 00-1.71-1.712zm-11.124 10.696a1.512 1.512 0 102.139 2.14 1.512 1.512 0 00-2.139-2.14zm-11.337 10.909c-.642.642-.856 1.712 0 2.567.855.856 1.711.856 2.567 0 .641-.642.855-1.711 0-2.567-.856-.855-1.926-.642-2.567 0zm-10.91 10.909a1.815 1.815 0 102.566 2.567 1.815 1.815 0 00-2.566-2.567zm-11.337 10.91c-.856.856-.856 2.14 0 2.995.855.856 2.139.856 2.995 0 .855-.855.855-2.139 0-2.995-.856-.855-2.14-.855-2.995 0zm-11.124 10.696a2.42 2.42 0 103.422 3.422 2.42 2.42 0 00-3.422-3.422zm-11.337 10.909a2.722 2.722 0 103.848 3.851 2.722 2.722 0 00-3.848-3.851zm-11.124 10.697c-1.069 1.069-1.283 2.994 0 4.278 1.07 1.069 2.995 1.283 4.279 0 1.069-1.07 1.283-2.995 0-4.278-1.284-1.284-3.209-1.07-4.279 0zm-11.337 10.909c-1.284 1.284-1.284 3.423 0 4.706 1.283 1.284 3.422 1.284 4.706 0 1.283-1.283 1.283-3.422 0-4.706-1.284-1.283-3.423-1.283-4.706 0zm-11.124 10.695c-1.497 1.498-1.497 3.637 0 5.134 1.498 1.498 3.637 1.498 5.134 0 1.498-1.497 1.497-3.636 0-5.134-1.497-1.497-3.85-1.283-5.134 0zm-11.337 10.911a3.932 3.932 0 105.561 5.561 3.932 3.932 0 10-5.561-5.561zM124.2 181.458c-1.711 1.711-1.711 4.278 0 5.989 1.712 1.712 4.279 1.712 5.99 0 1.711-1.711 1.711-4.278 0-5.989-1.711-1.711-4.278-1.711-5.99 0zm-11.337 10.909a4.539 4.539 0 106.42 6.418 4.539 4.539 0 00-6.42-6.418zm-11.124 10.696c-1.925 1.925-1.925 4.92 0 6.845 1.926 1.925 4.92 1.925 6.846 0 1.925-1.925 1.925-4.92 0-6.845-1.926-1.925-4.92-1.925-6.846 0zm-11.123 10.696c-1.925 1.925-1.925 5.348 0 7.273 1.925 1.925 5.348 1.925 7.273 0 1.925-1.925 1.925-5.348 0-7.273-1.925-1.925-5.348-1.925-7.273 0zm-11.338 10.909a5.423 5.423 0 000 7.701 5.423 5.423 0 007.701 0 5.423 5.423 0 000-7.701 5.423 5.423 0 00-7.7 0zM67.94 235.15c-2.352 2.353-2.138 5.99 0 8.129 2.14 2.139 5.99 2.139 8.13 0 2.353-2.353 2.139-5.99 0-8.129-2.14-2.139-5.99-2.139-8.13 0zm-11.123 11.124a6.051 6.051 0 108.558 8.557 6.051 6.051 0 00-8.558-8.557zM280.571 7.546c-.428.428-.428.855 0 1.283.428.428.856.428 1.284 0 .428-.428.428-.855 0-1.283-.214-.214-.856-.428-1.284 0zm-10.909 10.91c-.428.428-.428.856 0 1.283.428.428.855.428 1.283 0 .428-.427.428-.855 0-1.283-.428 0-1.069-.214-1.283 0zm-11.124 11.123c-.428.428-.428 1.283 0 1.711.428.428 1.284.428 1.711 0 .428-.428.428-1.283 0-1.711-.641-.642-1.283-.428-1.711 0zM247.201 40.06c-.642.642-.642 1.498 0 2.14.641.642 1.497.642 2.139 0 .641-.642.641-1.498 0-2.14-.642-.64-1.712-.427-2.139 0zm-11.124 11.125c-.642.642-.642 1.497 0 2.139.642.642 1.497.642 2.139 0 .642-.642.642-1.497 0-2.14-.642-.64-1.497-.64-2.139 0zm-10.909 10.909c-.642.642-.642 1.497 0 2.14.641.64 1.497.64 2.139 0 .641-.643.641-1.498 0-2.14-.642-.642-1.498-.642-2.139 0zm-11.338 10.91a1.815 1.815 0 102.566 2.567 1.815 1.815 0 00-2.566-2.567zm-11.337 10.481a2.42 2.42 0 103.423 3.423 2.42 2.42 0 00-3.423-3.423zm-11.124 11.124c-.855.855-.855 2.567 0 3.422.856.856 2.567.856 3.423 0 .856-.856.856-2.567 0-3.422-.856-.856-2.353-1.07-3.423 0zm-10.909 10.909c-1.07 1.07-.856 2.567 0 3.423 1.069 1.069 2.567.855 3.422 0 1.07-1.07.856-2.567 0-3.423-.855-.855-2.567-.855-3.422 0zm-11.338 10.91a2.713 2.713 0 000 3.851 2.711 2.711 0 003.851 0 2.713 2.713 0 000-3.851c-.856-1.283-2.781-1.069-3.851 0zm-11.124 10.696c-1.283 1.284-1.069 3.209 0 4.278 1.284 1.284 3.209 1.07 4.279 0 1.283-1.283 1.069-3.208 0-4.278-1.07-1.07-2.995-1.283-4.279 0zm-11.765 10.482a3.935 3.935 0 000 5.562 3.933 3.933 0 100-5.562zm-10.909 10.909c-1.498 1.497-1.498 4.064 0 5.562 1.497 1.497 4.064 1.497 5.562 0 1.497-1.498 1.497-4.065 0-5.562-1.498-1.497-4.065-1.497-5.562 0zm-11.338 10.91c-1.711 1.711-1.711 4.278 0 5.989 1.712 1.712 4.279 1.712 5.99 0 1.711-1.711 1.711-4.278 0-5.989-1.711-1.712-4.278-1.712-5.99 0zm-10.909 10.909c-1.712 1.712-1.712 4.279 0 5.99 1.711 1.711 4.278 1.711 5.989 0 1.712-1.711 1.712-4.278 0-5.99-1.711-1.711-4.278-1.711-5.989 0zm-11.338 10.91a4.538 4.538 0 106.418 6.417 4.538 4.538 0 00-6.418-6.417zM90.616 191.94a4.84 4.84 0 106.844 6.845 4.84 4.84 0 00-6.844-6.845zm-11.124 10.695a5.144 5.144 0 107.275 7.274 5.144 5.144 0 00-7.275-7.274zm-11.337 10.91c-2.14 2.139-2.353 5.776 0 8.129 2.139 2.139 5.775 2.353 8.128 0 2.14-2.139 2.353-5.776 0-8.129-2.353-2.353-5.99-2.139-8.128 0zm-11.124 10.696c-2.353 2.353-2.353 6.203 0 8.556 2.353 2.353 6.204 2.353 8.557 0 2.353-2.353 2.353-6.203 0-8.556-2.781-2.353-6.417-2.139-8.557 0zM45.48 234.937c-2.567 2.566-2.567 6.417 0 8.984s6.417 2.567 8.984 0 2.567-6.418 0-8.984c-2.353-2.354-6.417-2.567-8.984 0zM258.538 7.332c-.428.428-.428 1.283 0 1.711.428.428 1.284.428 1.711 0 .428-.428.428-1.283 0-1.711-.641-.214-1.283-.428-1.711 0zm-11.337 10.909a1.512 1.512 0 102.138 2.14 1.512 1.512 0 00-2.138-2.14zm-10.91 10.911c-.641.641-.641 1.497 0 2.139.642.642 1.498.642 2.139 0 .642-.642.642-1.498 0-2.14-.641-.641-1.711-.427-2.139 0zM224.954 40.06a1.815 1.815 0 102.566 2.568 1.815 1.815 0 00-2.566-2.567zm-10.91 10.91c-.642.643-.642 1.926 0 2.568.642.642 1.925.642 2.567 0 .642-.642.642-1.925 0-2.567-.856-.856-1.925-.642-2.567 0zm-11.551 10.697a2.42 2.42 0 103.423 3.422 2.42 2.42 0 00-3.423-3.422zm-10.91 10.909a2.42 2.42 0 103.423 3.422 2.42 2.42 0 00-3.423-3.422zm-11.337 10.909a2.71 2.71 0 000 3.85 2.71 2.71 0 003.85 0 2.71 2.71 0 000-3.85 2.71 2.71 0 00-3.85 0zm-10.91 10.91a2.723 2.723 0 103.852 3.85 2.723 2.723 0 00-3.852-3.85zm-11.337 10.91c-1.284 1.283-1.07 3.208 0 4.278 1.069 1.07 3.208 1.07 4.278 0 1.283-1.283 1.07-3.209 0-4.278-1.07-1.07-2.995-1.284-4.278 0zm-11.338 10.482c-1.283 1.283-1.283 3.422 0 4.706 1.284 1.283 3.423 1.283 4.706 0 1.284-1.284 1.284-3.423 0-4.706-1.283-1.284-3.422-1.284-4.706 0zm-11.337 10.909a3.933 3.933 0 105.562 5.56 3.933 3.933 0 00-5.562-5.56zM124.2 137.392c-1.497 1.497-1.711 4.278 0 5.99 1.498 1.497 4.279 1.711 5.99 0 1.497-1.498 1.711-4.279 0-5.99-1.925-1.497-4.492-1.497-5.99 0zm-11.337 10.909c-1.711 1.711-1.711 4.278 0 5.99 1.711 1.711 4.278 1.711 5.989 0 1.712-1.712 1.712-4.279 0-5.99-1.283-1.711-4.278-1.711-5.989 0zm-11.378 11.452a4.538 4.538 0 107.366 5.302 4.538 4.538 0 00-7.366-5.302zm-10.869 10.368a4.84 4.84 0 106.844 6.845 4.84 4.84 0 00-6.844-6.845zm-11.124 10.695a5.143 5.143 0 107.273 7.273 5.143 5.143 0 00-7.273-7.273zm-11.123 10.696a5.446 5.446 0 107.701 7.701 5.446 5.446 0 00-7.701-7.701zm-11.551 10.696c-2.353 2.353-2.14 5.989 0 8.128 2.353 2.353 5.99 2.139 8.128 0 2.353-2.353 2.14-5.989 0-8.128-2.139-2.14-5.775-2.353-8.128 0zm-10.91 10.909c-2.353 2.353-2.353 6.204 0 8.557 2.353 2.353 6.203 2.353 8.556 0 2.354-2.353 2.354-6.204 0-8.557-2.353-2.353-6.203-2.353-8.556 0zm-11.338 10.91a6.352 6.352 0 108.985 8.984 6.353 6.353 0 10-8.985-8.984zM236.077 7.118a1.512 1.512 0 102.139 2.14 1.512 1.512 0 00-2.139-2.14zm-11.123 10.696c-.856.856-.642 1.925 0 2.567.855.856 1.925.642 2.567 0 .855-.855.641-1.925 0-2.567-.642-.642-1.926-.642-2.567 0zm-11.338 10.91c-.855.855-.855 2.139 0 2.995.856.855 2.139.855 2.995 0 .856-.856.856-2.14 0-2.995-.856-.856-2.139-.856-2.995 0zM202.493 39.42a2.42 2.42 0 103.423 3.422 2.42 2.42 0 00-3.423-3.423zm-11.124 11.123a2.42 2.42 0 103.423 3.423 2.42 2.42 0 00-3.423-3.423zm-11.123 10.695a2.71 2.71 0 000 3.85 2.71 2.71 0 003.85 0 2.71 2.71 0 000-3.85 2.71 2.71 0 00-3.85 0zm-11.338 10.91c-1.069 1.07-1.283 2.995 0 4.278 1.284 1.284 2.995 1.284 4.279 0 1.069-1.07 1.283-2.995 0-4.278-1.284-1.283-2.995-1.283-4.279 0zm-11.123 10.695c-1.284 1.284-1.284 3.423 0 4.706 1.283 1.284 3.422 1.284 4.706 0 1.283-1.283 1.283-3.422 0-4.706-1.284-1.283-3.423-1.283-4.706 0zm-11.338 10.91c-1.497 1.497-1.497 3.636 0 5.134 1.498 1.497 3.637 1.497 5.134 0 1.498-1.498 1.498-3.637 0-5.134-1.283-1.284-3.636-1.498-5.134 0zm-11.123 10.696a3.933 3.933 0 105.562 5.562 3.933 3.933 0 00-5.562-5.562zM124.2 115.572c-1.497 1.497-1.497 4.064 0 5.562 1.498 1.497 4.065 1.497 5.562 0 1.497-1.498 1.497-4.065 0-5.562-1.284-1.711-3.85-1.711-5.562 0zm-11.123 10.696c-1.712 1.712-1.712 4.279 0 5.99 1.711 1.711 4.278 1.711 5.989 0 1.712-1.711 1.712-4.278 0-5.99-1.711-1.711-4.278-1.711-5.989 0zm-11.338 10.91c-1.711 1.711-1.711 4.706 0 6.417 1.712 1.712 4.706 1.712 6.418 0 1.711-1.711 1.711-4.706 0-6.417-1.712-1.711-4.492-1.925-6.418 0zM90.83 148.087c-1.712 1.712-1.712 4.706 0 6.418 1.711 1.711 4.706 1.711 6.417 0 1.711-1.712 1.711-4.706 0-6.418-1.711-1.711-4.706-1.711-6.417 0zm-11.338 10.91a4.84 4.84 0 106.845 6.845 4.84 4.84 0 00-6.845-6.845zm-11.123 10.696a5.143 5.143 0 107.273 7.273 5.143 5.143 0 00-7.273-7.273zm-11.124 10.696a5.445 5.445 0 107.701 7.701 5.445 5.445 0 00-7.7-7.701zm-11.337 10.909a5.748 5.748 0 108.13 8.129 5.748 5.748 0 00-8.13-8.129zm-11.124 10.696c-2.353 2.353-2.353 6.203 0 8.556 2.353 2.353 6.204 2.353 8.557 0 2.353-2.353 2.353-6.203 0-8.556-2.353-2.353-6.204-2.353-8.557 0zm-11.337 10.909c-2.567 2.567-2.353 6.632 0 8.985 2.353 2.353 6.631 2.353 8.984 0 2.567-2.567 2.353-6.632 0-8.985-2.353-2.353-6.417-2.567-8.984 0zM213.83 6.69c-.856.856-.856 2.14 0 2.995.856.856 2.139.856 2.995 0 .856-.856.856-2.14 0-2.995-1.07-.642-2.353-.642-2.995 0zM202.493 17.6c-.856.856-.856 2.14 0 2.995.855.856 2.139.856 2.995 0 .855-.856.855-2.14 0-2.995-.642-.642-2.14-.855-2.995 0zm-10.91 10.91a2.42 2.42 0 103.423 3.422 2.42 2.42 0 00-3.423-3.422zm-11.337 10.909a2.71 2.71 0 000 3.85 2.71 2.71 0 003.85 0 2.71 2.71 0 000-3.85 2.71 2.71 0 00-3.85 0zm-11.124 10.696a2.712 2.712 0 000 3.85 2.712 2.712 0 003.851 0 2.712 2.712 0 000-3.85c-.856-.856-2.781-1.07-3.851 0zm-11.418 11.501a3.024 3.024 0 104.908 3.536 3.024 3.024 0 00-4.908-3.536zm-10.829 10.318a3.329 3.329 0 104.709 4.706 3.329 3.329 0 00-4.709-4.706zm-11.337 10.91c-1.284 1.283-1.498 3.636 0 5.134 1.283 1.283 3.636 1.497 5.134 0 1.497-1.498 1.283-3.85 0-5.134-1.498-1.498-3.637-1.498-5.134 0zm-11.124 10.695a3.933 3.933 0 105.561 5.562 3.933 3.933 0 00-5.561-5.562zm-11.337 10.91c-1.498 1.497-1.498 4.064 0 5.562 1.497 1.497 4.064 1.497 5.561 0 1.498-1.498 1.498-4.065 0-5.562-1.283-1.711-3.85-1.711-5.561 0zm-11.124 10.696c-1.711 1.711-1.711 4.278 0 5.989 1.712 1.712 4.279 1.712 5.99 0 1.711-1.711 1.711-4.278 0-5.989-1.497-1.498-4.278-1.711-5.99 0zM90.83 126.269c-1.712 1.711-1.712 4.706 0 6.417 1.711 1.711 4.706 1.711 6.417 0 1.711-1.711 1.711-4.706 0-6.417-1.711-2.139-4.492-1.926-6.417 0zm-11.124 10.695c-1.925 1.925-1.925 4.92 0 6.845 1.925 1.926 4.92 1.926 6.846 0 1.925-1.925 1.925-4.92 0-6.845-1.926-1.925-4.92-1.925-6.846 0zm-11.337 10.91a5.143 5.143 0 107.273 7.273 5.143 5.143 0 00-7.273-7.273zm-11.124 10.695a5.423 5.423 0 000 7.701 5.423 5.423 0 007.701 0 5.423 5.423 0 000-7.701 5.423 5.423 0 00-7.7 0zm-11.123 10.696c-2.14 2.139-2.353 5.775 0 8.128 2.139 2.14 5.775 2.354 8.128 0 2.14-2.139 2.353-5.775 0-8.128-2.567-2.139-5.99-2.139-8.128 0zm-11.338 10.909c-2.353 2.353-2.353 6.204 0 8.557 2.353 2.353 6.204 2.353 8.557 0 2.353-2.353 2.353-6.204 0-8.557-2.353-2.353-6.204-2.353-8.557 0zM22.98 191.637a6.354 6.354 0 1010.315 7.422 6.354 6.354 0 00-10.315-7.422zm-11.355 10.955a6.655 6.655 0 001.515 9.289 6.656 6.656 0 10-1.514-9.289zM202.707-4.433a2.118 2.118 0 102.995 2.994 2.118 2.118 0 00-2.995-2.994zM191.369 6.476c-.855.856-.855 2.567 0 3.423.856.856 2.567.856 3.423 0 .856-.856.856-2.567 0-3.423-.856-.855-2.353-1.07-3.423 0zm-10.909 10.91a2.42 2.42 0 103.423 3.423 2.42 2.42 0 00-3.423-3.423zm-11.338 10.91a2.712 2.712 0 000 3.85 2.712 2.712 0 003.851 0 2.712 2.712 0 000-3.85 2.712 2.712 0 00-3.851 0zm-11.123 10.695a3.024 3.024 0 104.278 4.279 3.026 3.026 0 00-4.278-4.279zm-11.338 10.91c-1.283 1.284-1.283 3.423 0 4.706 1.284 1.284 3.423 1.284 4.706 0 1.284-1.283 1.284-3.422 0-4.706-1.283-1.283-3.422-1.283-4.706 0zm-11.123 10.696a3.63 3.63 0 105.132 5.134 3.63 3.63 0 00-5.132-5.134zM124.2 71.506c-1.497 1.498-1.497 4.065 0 5.562 1.498 1.497 4.065 1.497 5.562 0 1.497-1.497 1.497-4.064 0-5.562-1.497-1.497-3.85-1.711-5.562 0zm-10.909 10.91c-1.498 1.498-1.498 4.065 0 5.562 1.497 1.498 4.064 1.498 5.562 0 1.497-1.497 1.497-4.064 0-5.562-1.498-1.497-4.065-1.497-5.562 0zm-11.338 10.91c-1.711 1.71-1.711 4.278 0 5.989 1.711 1.711 4.278 1.711 5.99 0 1.711-1.711 1.711-4.278 0-5.99-1.498-1.925-4.279-1.71-5.99 0zM90.83 104.021c-1.925 1.926-1.712 4.706 0 6.418 1.711 1.711 4.706 1.711 6.417 0 1.925-1.926 1.712-4.706 0-6.418-1.711-1.711-4.706-1.711-6.417 0zM79.492 114.93a4.841 4.841 0 106.847 6.846 4.841 4.841 0 00-6.847-6.846zm-10.909 10.91c-1.925 1.925-2.14 5.134 0 7.273 1.925 1.925 5.134 2.139 7.273 0 1.925-1.925 2.139-5.134 0-7.273-2.353-1.925-5.348-1.925-7.273 0zm-11.338 10.91c-1.925 1.925-1.925 5.348 0 7.273 1.925 1.926 5.348 1.925 7.273 0 1.925-1.925 1.925-5.348 0-7.273-1.925-1.925-5.134-2.139-7.273 0zm-11.123 10.695a5.445 5.445 0 107.7 7.701 5.445 5.445 0 00-7.7-7.701zm-11.124 10.697a5.747 5.747 0 108.129 8.129 5.747 5.747 0 00-8.129-8.129zm-11.123 11.123c-2.354 2.353-2.354 6.204 0 8.557 2.353 2.353 6.203 2.353 8.556 0 2.353-2.353 2.353-6.204 0-8.557-2.567-2.567-6.203-2.353-8.556 0zm-11.124 10.696c-2.353 2.353-2.353 6.203 0 8.557 2.353 2.353 6.204 2.353 8.557 0 2.353-2.354 2.353-6.204 0-8.557-2.353-2.353-6.204-2.353-8.557 0zM1.414 190.87a6.352 6.352 0 108.983 8.984 6.352 6.352 0 00-8.983-8.984zM180.032-4.86c-1.07 1.069-1.284 2.994 0 4.277 1.069 1.07 2.994 1.284 4.278 0 1.069-1.07 1.283-2.994 0-4.278-1.07-1.07-3.209-1.07-4.278 0zM169.336 6.262a2.712 2.712 0 000 3.85 2.712 2.712 0 003.851 0 2.712 2.712 0 000-3.85 2.712 2.712 0 00-3.851 0zm-11.337 10.91a3.024 3.024 0 104.278 4.278 3.026 3.026 0 00-4.278-4.278zm-11.338 10.482c-1.497 1.497-1.497 3.636 0 5.134 1.498 1.497 3.637 1.497 5.134 0 1.497-1.498 1.497-3.637 0-5.134-1.497-1.498-3.85-1.284-5.134 0zm-11.337 10.909c-1.498 1.498-1.498 4.065 0 5.562 1.497 1.498 4.064 1.498 5.561 0 1.498-1.497 1.498-4.064.001-5.562-1.498-1.497-4.065-1.497-5.562 0zm-10.91 10.911c-1.497 1.497-1.497 4.064 0 5.561 1.498 1.498 4.065 1.498 5.562 0 1.497-1.497 1.497-4.064 0-5.561-1.711-1.712-4.064-1.498-5.562 0zm-11.123 11.123c-1.498 1.497-1.498 4.064 0 5.562 1.497 1.497 4.064 1.497 5.562 0 1.497-1.498 1.497-4.065 0-5.562-1.498-1.925-3.851-1.711-5.562 0zm-11.124 10.695c-1.711 1.712-1.711 4.279 0 5.99 1.711 1.711 4.278 1.711 5.99 0 1.711-1.711 1.711-4.278 0-5.99-1.712-1.711-4.492-1.497-5.99 0zM90.616 81.988c-1.925 1.926-1.711 4.707 0 6.418 1.925 1.925 4.706 1.711 6.417 0 1.712-1.712 1.712-4.706 0-6.418-1.497-1.925-4.492-1.925-6.417 0zm-10.91 10.91c-1.925 1.925-1.711 4.706 0 6.417 1.925 1.925 4.706 1.711 6.418 0 1.925-1.925 1.711-4.706 0-6.417-1.712-1.712-4.706-1.712-6.418 0zm-11.123 11.123c-1.925 1.925-1.925 4.92 0 6.845 1.925 1.926 4.92 1.926 6.845 0 1.925-1.925 1.925-4.92 0-6.845-1.925-1.925-4.92-1.925-6.845 0zm-11.124 10.695c-1.925 1.926-2.14 5.134 0 7.274 1.925 1.925 5.134 2.139 7.273 0 1.925-1.926 2.14-5.134 0-7.274-2.139-1.711-5.348-1.925-7.273 0zM46.336 125.84c-1.926 1.925-1.926 5.348 0 7.273 1.925 1.925 5.347 1.925 7.273 0 1.925-1.925 1.925-5.348 0-7.273-1.926-2.353-5.134-2.139-7.273 0zm-11.338 10.482c-2.139 2.139-2.353 5.776 0 8.129 2.14 2.139 5.776 2.353 8.129 0 2.14-2.139 2.353-5.776 0-8.129-2.14-2.139-5.99-2.139-8.129 0zm-10.909 10.91c-2.14 2.139-2.353 5.775 0 8.128 2.139 2.139 5.775 2.353 8.128 0 2.14-2.139 2.353-5.775 0-8.128-2.353-2.354-5.99-2.14-8.128 0zm-11.338 10.909c-2.353 2.353-2.353 6.204 0 8.557 2.353 2.353 6.204 2.353 8.557 0 2.353-2.353 2.353-6.204 0-8.557-2.353-2.353-6.204-2.353-8.557 0zM1.628 168.837c-2.567 2.567-2.567 6.417 0 8.984s6.417 2.567 8.984 0 2.567-6.417 0-8.984c-2.78-2.353-6.631-2.353-8.984 0zm-11.338 10.91c-2.567 2.566-2.567 6.845 0 9.412 2.567 2.567 6.845 2.567 9.412 0 2.567-2.567 2.567-6.846 0-9.412-2.567-2.567-6.845-2.567-9.412 0zM157.999-5.075c-1.284 1.283-1.07 3.209 0 4.278 1.283 1.284 3.208 1.07 4.278 0 1.283-1.283 1.069-3.209 0-4.278-1.07-1.07-3.209-1.07-4.278 0zM146.447 5.621c-1.497 1.497-1.497 4.064 0 5.562 1.498 1.497 4.065 1.497 5.562 0 1.497-1.498 1.497-4.065 0-5.562-1.497-1.497-4.064-1.497-5.562 0zm-11.123 10.696a3.932 3.932 0 105.56 5.561 3.932 3.932 0 00-5.56-5.561zM124.2 27.44c-1.497 1.498-1.497 4.065 0 5.562 1.498 1.497 4.065 1.497 5.562 0 1.497-1.497 1.497-4.064 0-5.562-1.283-1.711-3.85-1.711-5.562 0zm-10.909 10.91c-1.498 1.497-1.498 4.064 0 5.561 1.497 1.498 4.064 1.498 5.562 0 1.497-1.497 1.497-4.064 0-5.562-1.498-1.497-4.065-1.497-5.562 0zm-11.338 10.91c-1.711 1.71-1.711 4.278 0 5.99 1.711 1.71 4.278 1.71 5.99 0 1.711-1.712 1.711-4.28 0-5.99-1.498-1.926-4.279-1.712-5.99 0zM90.83 59.955a4.538 4.538 0 106.417 6.417 4.538 4.538 0 00-6.417-6.417zM79.706 71.078a4.538 4.538 0 106.417 6.418 4.538 4.538 0 00-6.417-6.418zM68.583 81.775a4.84 4.84 0 106.845 6.845 4.84 4.84 0 00-6.845-6.845zM57.245 92.683a5.143 5.143 0 107.273 7.273 5.143 5.143 0 00-7.273-7.273zm-10.909 10.91c-2.14 2.14-1.926 5.348 0 7.274 1.925 1.925 5.348 1.925 7.273 0 2.139-2.14 1.925-5.348 0-7.274-1.925-1.925-5.348-1.925-7.273 0zm-11.338 10.91a5.423 5.423 0 000 7.701 5.423 5.423 0 007.701 0 5.423 5.423 0 000-7.701c-1.925-2.353-5.562-2.139-7.7 0zm-10.909 10.91a5.423 5.423 0 000 7.701 5.423 5.423 0 007.7 0 5.423 5.423 0 000-7.701 5.423 5.423 0 00-7.7 0zm-11.124 10.695a5.748 5.748 0 108.13 8.129 5.748 5.748 0 00-8.13-8.129zm-11.337 10.91c-2.353 2.353-2.353 6.203 0 8.556 2.353 2.353 6.203 2.353 8.556 0 2.353-2.353 2.353-6.203 0-8.556-2.353-2.353-6.203-2.353-8.556 0zm-10.91 10.909c-2.353 2.353-2.353 6.204 0 8.557 2.353 2.353 6.204 2.353 8.557 0 2.353-2.353 2.353-6.204 0-8.557-2.353-2.353-6.204-2.353-8.557 0zM135.324-5.503c-1.498 1.498-1.498 4.065 0 5.562 1.497 1.498 4.064 1.498 5.562 0 1.497-1.497 1.497-4.064 0-5.562-1.498-1.497-4.065-1.497-5.562 0zM124.2 5.193c-1.497 1.497-1.711 4.278 0 5.99 1.498 1.497 4.279 1.71 5.99 0 1.497-1.498 1.711-4.279 0-5.99-1.925-1.498-4.492-1.498-5.99 0zm-11.123 11.123c-1.712 1.712-1.712 4.279 0 5.99 1.711 1.711 4.278 1.711 5.989 0 1.712-1.712 1.712-4.278 0-5.99-1.711-1.711-4.278-1.711-5.989 0zm-11.124 10.696c-1.711 1.711-1.711 4.706 0 6.417 1.711 1.712 4.706 1.712 6.418 0 1.711-1.71 1.711-4.706 0-6.417-1.926-1.497-4.707-1.711-6.418 0zm-11.337 10.91c-1.925 1.925-1.711 4.706 0 6.417 1.925 1.925 4.706 1.711 6.417 0 1.926-1.925 1.712-4.706 0-6.417-1.497-1.926-4.492-1.926-6.417 0zM79.92 49.046a4.538 4.538 0 106.417 6.417 4.538 4.538 0 00-6.417-6.417zM68.583 59.955a4.84 4.84 0 106.845 6.846 4.84 4.84 0 00-6.845-6.846zM57.46 70.65c-1.926 1.926-1.926 5.348 0 7.274 1.925 1.925 5.347 1.925 7.272 0 1.925-1.926 1.925-5.348 0-7.273-2.139-2.14-5.347-1.926-7.273 0zM46.336 81.775c-1.925 1.925-1.925 5.347 0 7.273 1.925 1.925 5.348 1.925 7.273 0 1.925-1.925 2.139-5.562.214-7.487-2.14-2.14-5.348-1.926-7.487.214zM35.212 92.47a5.422 5.422 0 000 7.7 5.423 5.423 0 007.701 0 5.422 5.422 0 000-7.7 5.423 5.423 0 00-7.7 0zm-11.124 11.123a5.423 5.423 0 000 7.701 5.423 5.423 0 007.701 0 5.423 5.423 0 000-7.701 5.423 5.423 0 00-7.7 0zM12.965 114.29c-2.139 2.139-2.353 5.775 0 8.128 2.14 2.14 5.776 2.353 8.129 0 2.353-2.353 2.353-5.775 0-8.128-2.353-2.353-5.99-2.14-8.129 0zM1.841 124.985c-2.353 2.353-2.353 6.203 0 8.556 2.353 2.354 6.204 2.354 8.557 0 2.353-2.353 2.353-6.203 0-8.556-2.353-2.353-6.417-2.139-8.557 0zm-11.123 11.123c-2.353 2.354-2.353 6.204 0 8.557 2.353 2.353 6.203 2.353 8.556 0 2.354-2.353 2.354-6.204 0-8.557-2.353-2.353-6.203-2.353-8.556 0zM113.077-5.93c-1.712 1.711-1.712 4.278 0 5.99 1.711 1.71 4.278 1.71 5.989 0 1.712-1.712 1.712-4.279 0-5.99-1.711-1.712-4.278-1.712-5.989 0zM101.953 5.193c-1.711 1.711-1.711 4.706 0 6.418 1.712 1.71 4.706 1.71 6.418 0 1.711-1.712 1.711-4.707 0-6.418-1.712-1.711-4.706-1.711-6.418 0zM90.616 15.675a4.84 4.84 0 106.845 6.845 4.84 4.84 0 00-6.845-6.845zm-10.91 11.337c-1.925 1.926-1.711 4.706 0 6.418 1.925 1.925 4.706 1.711 6.418 0 1.925-1.925 1.71-4.706 0-6.418-1.498-1.925-4.493-1.925-6.418 0zM68.583 37.708a4.84 4.84 0 106.845 6.845 4.84 4.84 0 00-6.845-6.845zM57.245 48.617c-1.925 1.925-1.925 5.348 0 7.273 1.925 1.926 5.562 2.14 7.487.214 1.925-1.925 1.925-5.347 0-7.273-1.925-1.925-5.348-2.353-7.487-.214zM46.336 59.528c-1.926 1.925-1.926 5.347 0 7.273 1.925 1.925 5.347 2.353 7.486.213 1.926-1.925 1.926-5.347 0-7.273-1.925-1.925-5.561-2.139-7.486-.213zM35.212 70.65a5.143 5.143 0 107.273 7.274 5.143 5.143 0 00-7.273-7.273zM24.303 81.56a5.423 5.423 0 000 7.701 5.423 5.423 0 007.7 0 5.423 5.423 0 000-7.7 5.423 5.423 0 00-7.7 0zm-11.91 11.598a5.446 5.446 0 108.84 6.363 5.446 5.446 0 00-8.84-6.363zM1.842 103.166a5.747 5.747 0 108.129 8.129 5.747 5.747 0 00-8.13-8.129zm-10.91 10.909c-2.353 2.353-2.353 6.204 0 8.557 2.353 2.353 6.203 2.353 8.556 0 2.354-2.353 2.354-6.204 0-8.557-2.353-2.353-6.417-2.139-8.556 0zM90.83-5.93A4.538 4.538 0 1097.247.487 4.538 4.538 0 0090.83-5.93zM79.706 4.765a4.84 4.84 0 106.846 6.845 4.84 4.84 0 00-6.846-6.845zm-11.337 10.91c-1.925 1.925-2.14 5.133 0 7.273 2.139 2.139 5.134 2.139 7.273 0 1.925-1.926 2.139-5.134 0-7.274-2.14-2.139-5.348-1.925-7.273 0zM57.46 26.585a5.143 5.143 0 107.272 7.273 5.143 5.143 0 00-7.273-7.273zM46.336 37.708c-1.926 1.925-1.926 5.348 0 7.273 1.925 1.925 5.348 1.925 7.273 0 1.925-1.925 1.925-5.348 0-7.273-1.925-1.925-5.134-2.139-7.273 0zM35.212 48.404a5.445 5.445 0 107.7 7.7 5.445 5.445 0 00-7.7-7.7zM24.088 59.526a5.423 5.423 0 000 7.701 5.423 5.423 0 007.701 0 5.423 5.423 0 000-7.7 5.423 5.423 0 00-7.7 0zM12.965 70.223c-2.14 2.139-2.353 5.775 0 8.129 2.14 2.139 5.776 2.352 8.129 0 2.139-2.14 2.353-5.776 0-8.13-2.353-1.924-5.99-2.138-8.129 0zM1.842 81.346a5.748 5.748 0 108.128 8.129 5.748 5.748 0 00-8.128-8.129zm-10.91 10.909c-2.353 2.354-2.14 5.99 0 8.129 2.353 2.353 5.99 2.139 8.129 0 2.353-2.353 2.139-5.99 0-8.129-2.353-2.353-5.776-2.353-8.13 0zM68.369-6.572c-1.925 1.925-1.925 5.348 0 7.273 1.925 1.925 5.348 1.925 7.273 0 1.925-1.925 1.925-5.348 0-7.273-1.925-1.925-5.348-1.925-7.273 0zM57.245 4.551a5.423 5.423 0 000 7.701 5.423 5.423 0 007.701 0 5.423 5.423 0 000-7.7 5.423 5.423 0 00-7.7 0zm-10.909 10.91c-2.14 2.14-1.925 5.348 0 7.273 2.139 2.14 5.348 1.925 7.273 0 2.139-2.139 1.925-5.348 0-7.273-1.925-1.925-5.348-1.925-7.273 0zM34.998 26.37a5.423 5.423 0 000 7.701 5.423 5.423 0 007.701 0 5.423 5.423 0 000-7.7c-1.925-2.354-5.562-2.14-7.7 0zm-10.91 10.91a5.423 5.423 0 000 7.7 5.423 5.423 0 007.701 0 5.423 5.423 0 000-7.7 5.423 5.423 0 00-7.7 0zM12.965 48.404a5.423 5.423 0 000 7.7 5.423 5.423 0 007.7 0 5.423 5.423 0 000-7.7c-1.924-2.354-5.347-2.354-7.7 0zM1.842 59.1c-2.353 2.352-2.14 5.989 0 8.128 2.353 2.353 5.99 2.14 8.128 0 2.353-2.353 2.14-5.99 0-8.129-2.139-2.139-5.775-2.353-8.128 0zM-9.282 70.223c-2.353 2.353-2.14 5.99 0 8.129 2.353 2.353 5.99 2.139 8.129 0 2.353-2.353 2.139-5.99 0-8.13-1.925-2.352-5.776-2.352-8.129 0zM46.122-6.572a5.423 5.423 0 000 7.7 5.423 5.423 0 007.7 0 5.423 5.423 0 000-7.7 5.423 5.423 0 00-7.7 0zM35.212 4.337a5.446 5.446 0 107.701 7.701 5.446 5.446 0 00-7.7-7.701zM24.089 15.46a5.445 5.445 0 107.7 7.701 5.445 5.445 0 00-7.7-7.7zM12.965 26.156c-2.14 2.139-2.353 5.776 0 8.129 2.353 2.353 5.776 2.353 8.129 0 2.139-2.14 2.353-5.776 0-8.13-2.353-2.352-5.99-2.138-8.129 0zM1.841 37.28a5.748 5.748 0 108.13 8.129 5.748 5.748 0 00-8.13-8.13zM-9.068 48.19c-2.353 2.353-2.14 5.99 0 8.129 2.14 2.139 5.99 2.139 8.129 0 2.353-2.353 2.139-5.99 0-8.129-2.14-2.14-5.776-2.353-8.13 0zM23.875-7c-2.354 2.353-2.354 6.204 0 8.557 2.353 2.353 6.203 2.353 8.556 0 2.353-2.353 2.353-6.204 0-8.557-2.567-2.14-6.203-2.353-8.556 0zM12.751 4.123c-2.353 2.353-2.14 5.99 0 8.129 2.353 2.353 5.99 2.14 8.129 0 2.353-2.353 2.139-5.99 0-8.129-1.925-2.353-5.776-2.353-8.129 0zM1.842 15.033c-2.353 2.353-2.353 6.203 0 8.556 2.353 2.353 6.203 2.353 8.556 0 2.353-2.353 2.353-6.203 0-8.556-2.353-2.353-6.203-2.353-8.556 0zM-9.282 26.156c-2.353 2.353-2.353 6.204 0 8.557 2.353 2.353 6.203 2.353 8.556 0 2.354-2.353 2.354-6.204 0-8.557-2.353-2.353-6.203-2.353-8.556 0zM1.628-7c-2.353 2.353-2.353 6.204 0 8.557 2.353 2.353 6.203 2.353 8.556 0 2.353-2.353 2.353-6.204 0-8.557-2.353-2.353-5.99-2.567-8.556 0zM-9.282 3.91c-2.353 2.352-2.353 6.203 0 8.556 2.353 2.353 6.204 2.353 8.557 0 2.353-2.353 2.353-6.204 0-8.557-2.353-2.353-6.204-2.353-8.557 0z" opacity=".2" fill="#fff"/></svg>