<svg width="46" height="46" fill="none" xmlns="http://www.w3.org/2000/svg"><path d="M44.425 12.448L32.706.271A.885.885 0 0032.068 0H14.602a3.548 3.548 0 00-3.545 3.544v12.38H3.978a2.655 2.655 0 00-2.652 2.65v13.274A2.655 2.655 0 003.978 34.5h7.079v7.963c0 1.95 1.59 3.537 3.545 3.537h26.525a3.544 3.544 0 003.545-3.535V13.062a.885.885 0 00-.247-.614zM32.288 2.388l9.62 9.997h-9.62V2.388zM3.978 32.731a.884.884 0 01-.883-.883V18.576c0-.487.397-.883.883-.883h23.888c.487 0 .883.396.883.883V31.85a.884.884 0 01-.883.882H3.978zm38.925 9.734c0 .973-.797 1.766-1.776 1.766H14.602c-.98 0-1.776-.793-1.776-1.768V34.5h15.04a2.655 2.655 0 002.652-2.651V18.575a2.655 2.655 0 00-2.652-2.652h-15.04V3.543c0-.978.797-1.774 1.776-1.774h15.916v11.5c0 .489.397.885.885.885h11.5v28.31z" fill="#F90"/><path d="M11.754 23.67a3.319 3.319 0 00-.726-1.232 2.54 2.54 0 00-1.145-.7c-.332-.096-.814-.144-1.446-.144H5.633v7.598H8.52c.567 0 1.02-.053 1.358-.16.453-.146.812-.348 1.078-.607.353-.342.624-.79.814-1.342.155-.453.233-.992.233-1.618 0-.711-.083-1.31-.249-1.796zm-1.493 3.12c-.103.34-.237.585-.401.733a1.415 1.415 0 01-.62.316c-.19.049-.5.073-.928.073H7.167v-5.033h.69c.625 0 1.045.024 1.259.072.287.063.523.182.71.358.186.176.332.422.435.736.104.315.156.765.156 1.353s-.052 1.052-.156 1.392zm16.161-.392c-.128.557-.338.965-.632 1.224s-.644.388-1.052.388c-.553 0-1.002-.204-1.348-.611-.345-.408-.518-1.092-.518-2.053 0-.905.175-1.56.526-1.964.35-.405.808-.607 1.371-.607.408 0 .754.114 1.04.342.284.229.472.54.562.933l1.518-.363c-.172-.608-.431-1.074-.777-1.399-.58-.55-1.335-.824-2.265-.824-1.065 0-1.923.35-2.576 1.05-.653.7-.98 1.681-.98 2.946 0 1.196.325 2.138.975 2.828.65.69 1.479 1.034 2.488 1.034.815 0 1.488-.201 2.018-.604.53-.403.91-1.018 1.138-1.848l-1.488-.472zm-7.065-3.892c-.673-.695-1.568-1.042-2.688-1.042-.619 0-1.164.1-1.638.3a2.956 2.956 0 00-.982.685 3.573 3.573 0 00-.708 1.042c-.231.525-.347 1.174-.347 1.948 0 1.21.334 2.16 1 2.849.667.689 1.566 1.034 2.696 1.034 1.116 0 2.008-.346 2.674-1.04.667-.692 1-1.652 1-2.879 0-1.237-.335-2.203-1.007-2.897zM18.19 27.35c-.392.44-.894.66-1.506.66-.611 0-1.116-.222-1.513-.666-.397-.444-.596-1.096-.596-1.956 0-.874.194-1.528.58-1.962.388-.434.897-.65 1.53-.65.632 0 1.139.213 1.52.642.383.429.574 1.078.574 1.949 0 .881-.196 1.542-.589 1.983z" fill="#F90"/></svg>