<svg width="46" height="46" fill="none" xmlns="http://www.w3.org/2000/svg"><path d="M44.425 12.448L32.706.271A.885.885 0 0032.068 0H14.602a3.548 3.548 0 00-3.545 3.544v12.38H3.978a2.655 2.655 0 00-2.652 2.65v13.274A2.655 2.655 0 003.978 34.5h7.079v7.963c0 1.95 1.59 3.537 3.545 3.537h26.525a3.544 3.544 0 003.545-3.535V13.062a.885.885 0 00-.247-.614zM32.288 2.388l9.62 9.997h-9.62V2.388zM3.978 32.731a.884.884 0 01-.883-.883V18.576c0-.487.397-.883.883-.883h23.888c.487 0 .883.396.883.883V31.85a.884.884 0 01-.883.882H3.978zm38.925 9.734c0 .973-.797 1.766-1.776 1.766H14.602c-.98 0-1.776-.793-1.776-1.768V34.5h15.04a2.655 2.655 0 002.653-2.651V18.575a2.655 2.655 0 00-2.653-2.652h-15.04V3.543c0-.978.797-1.774 1.776-1.774h15.916v11.5c0 .489.397.885.885.885h11.5v28.31z" fill="#F90"/><path d="M9.355 25.726c0 1.058-.301 1.868-.905 2.43-.6.563-1.469.844-2.606.844h-1.82v-6.425h2.018c1.049 0 1.863.277 2.443.83.58.554.87 1.328.87 2.321zm-1.415.035c0-1.38-.609-2.07-1.828-2.07h-.725v4.184h.585c1.312 0 1.968-.705 1.968-2.114zm8.579.018c0 1.063-.264 1.88-.791 2.452-.528.571-1.284.857-2.268.857-.984 0-1.74-.286-2.268-.857-.527-.571-.79-1.392-.79-2.461 0-1.07.263-1.885.79-2.448.53-.565 1.29-.848 2.277-.848.987 0 1.741.284 2.263.853.524.568.787 1.385.787 2.452zm-4.69 0c0 .718.137 1.258.41 1.621.272.364.679.545 1.221.545 1.087 0 1.63-.722 1.63-2.166 0-1.448-.54-2.171-1.621-2.171-.542 0-.95.183-1.226.55-.276.362-.413.903-.413 1.62zm8.75-2.162c-.513 0-.91.193-1.19.58-.282.384-.423.92-.423 1.608 0 1.433.538 2.15 1.613 2.15.451 0 .998-.114 1.64-.34v1.143c-.528.22-1.117.33-1.767.33-.935 0-1.65-.283-2.145-.848-.495-.569-.742-1.383-.742-2.444 0-.668.121-1.252.364-1.753.243-.504.592-.89 1.046-1.156.457-.27.992-.404 1.604-.404.624 0 1.251.15 1.881.453l-.44 1.107a7.267 7.267 0 00-.725-.299 2.165 2.165 0 00-.716-.127zM28.784 29h-1.556l-1.494-2.43L24.24 29h-1.46l2.132-3.314-1.995-3.11h1.503l1.384 2.31 1.358-2.31h1.468l-2.017 3.185L28.783 29z" fill="#F90"/></svg>