<svg width="46" height="46" fill="none" xmlns="http://www.w3.org/2000/svg"><path d="M44.425 12.448L32.706.271A.885.885 0 0032.068 0H14.602a3.548 3.548 0 00-3.545 3.544v12.38H3.978a2.655 2.655 0 00-2.652 2.65v13.274A2.655 2.655 0 003.978 34.5h7.079v7.963c0 1.95 1.59 3.537 3.545 3.537h26.525a3.544 3.544 0 003.545-3.535V13.062a.885.885 0 00-.247-.614zM32.288 2.388l9.62 9.997h-9.62V2.388zM3.978 32.731a.884.884 0 01-.883-.883V18.576c0-.487.397-.883.883-.883h23.888c.487 0 .883.396.883.883V31.85a.884.884 0 01-.883.882H3.978zm38.925 9.734c0 .973-.797 1.766-1.776 1.766H14.602c-.98 0-1.776-.793-1.776-1.768V34.5h15.04a2.655 2.655 0 002.653-2.651V18.575a2.655 2.655 0 00-2.653-2.652h-15.04V3.543c0-.978.797-1.774 1.776-1.774h15.916v11.5c0 .489.397.885.885.885h11.5v28.31z" fill="#F90"/><path d="M11.847 25.22h.498c.465 0 .813-.09 1.045-.273.23-.185.346-.454.346-.805 0-.355-.097-.617-.293-.787-.192-.169-.494-.253-.908-.253h-.688v2.119zm3.418-1.132c0 .768-.241 1.356-.723 1.763-.479.407-1.16.61-2.046.61h-.65V29h-1.513v-7.139h2.28c.866 0 1.524.188 1.973.562.452.37.679.926.679 1.665zM20.724 29h-4.112v-7.139h4.112v1.24h-2.598v1.568h2.417v1.24h-2.417v1.841h2.598V29zm4.204-4.009h2.832v3.701a7.79 7.79 0 01-1.3.313 8.183 8.183 0 01-1.24.093c-1.077 0-1.9-.316-2.47-.948-.566-.634-.85-1.544-.85-2.73 0-1.151.33-2.05.987-2.694.66-.645 1.575-.967 2.744-.967.732 0 1.439.146 2.119.44l-.503 1.21a3.593 3.593 0 00-1.626-.39c-.654 0-1.178.22-1.572.659-.394.44-.591 1.03-.591 1.772 0 .775.158 1.367.474 1.777.319.407.78.61 1.386.61.316 0 .637-.032.962-.097v-1.489h-1.352v-1.26zM7.428 22v4.446c0 .557-.073.924-.219 1.101-.146.177-.394.265-.746.265-.349 0-.608-.123-.779-.37-.113-.163-.179-.442-.197-.836L4 26.756c.004.735.213 1.293.629 1.674.416.38 1.01.57 1.78.57.658 0 1.187-.121 1.589-.364.401-.242.679-.564.831-.965.114-.306.171-.745.171-1.314V22H7.428z" fill="#F90"/></svg>