<svg width="46" height="46" fill="none" xmlns="http://www.w3.org/2000/svg"><path d="M44.425 12.448L32.706.271A.885.885 0 0032.068 0H14.602a3.548 3.548 0 00-3.545 3.544v12.38H3.978a2.655 2.655 0 00-2.652 2.65v13.274A2.655 2.655 0 003.978 34.5h7.079v7.963c0 1.95 1.59 3.537 3.545 3.537h26.525a3.544 3.544 0 003.545-3.535V13.062a.885.885 0 00-.247-.614zM32.288 2.388l9.62 9.997h-9.62V2.388zM3.978 32.731a.884.884 0 01-.883-.883V18.576c0-.487.397-.883.883-.883h23.888c.487 0 .883.396.883.883V31.85a.884.884 0 01-.883.882H3.978zm38.925 9.734c0 .973-.797 1.766-1.776 1.766H14.602c-.98 0-1.776-.793-1.776-1.768V34.5h15.04a2.655 2.655 0 002.653-2.651V18.575a2.655 2.655 0 00-2.653-2.652h-15.04V3.543c0-.978.797-1.774 1.776-1.774h15.916v11.5c0 .489.397.885.885.885h11.5v28.31z" fill="#F90"/><path d="M22.157 25.118v1.28h1.757v.965c-.232.18-.51.332-.832.458-.323.127-.646.19-.967.19-.65 0-1.175-.226-1.575-.677-.401-.45-.602-1.127-.602-2.03 0-.835.198-1.466.594-1.891.395-.425.928-.638 1.599-.638.442 0 .811.108 1.106.324.296.216.497.51.604.884l1.524-.285c-.152-.698-.493-1.245-1.024-1.64-.53-.396-1.267-.594-2.21-.594-.726 0-1.332.126-1.82.378a3.35 3.35 0 00-1.456 1.415c-.332.615-.498 1.319-.498 2.11 0 .73.149 1.404.446 2.024a3.18 3.18 0 001.332 1.43c.591.334 1.284.5 2.079.5a5.1 5.1 0 001.853-.354c.61-.237 1.075-.51 1.397-.822v-3.027h-3.307zm-5.236-2.667a1.993 1.993 0 00-1.093-.744c-.284-.076-.892-.113-1.825-.113h-2.462v7.598h1.534v-2.866h1c.695 0 1.226-.036 1.592-.109a2.23 2.23 0 00.796-.36 2.08 2.08 0 00.645-.75c.17-.317.254-.71.254-1.176 0-.604-.147-1.098-.44-1.48zm-1.314 2.092a.993.993 0 01-.48.373c-.203.08-.607.12-1.212.12h-.84v-2.157h.742c.552 0 .92.017 1.104.052.248.045.454.157.616.337.163.18.244.407.244.684 0 .224-.058.421-.174.59zM8.38 21.594v4.908c0 .615-.071 1.02-.213 1.216-.141.195-.383.292-.725.292-.34 0-.591-.136-.757-.41-.11-.179-.175-.486-.192-.922l-1.446.166c.003.812.207 1.428.612 1.848.404.42.98.63 1.73.63.64 0 1.155-.134 1.545-.402.39-.268.66-.623.809-1.065.11-.339.166-.823.166-1.451v-4.81h-1.53z" fill="#F90"/></svg>