<svg width="46" height="46" fill="none" xmlns="http://www.w3.org/2000/svg"><path d="M44.425 12.448L32.706.271A.885.885 0 0032.068 0H14.602a3.548 3.548 0 00-3.545 3.544v12.38H3.978a2.655 2.655 0 00-2.652 2.65v13.274A2.655 2.655 0 003.978 34.5h7.079v7.963c0 1.95 1.59 3.537 3.545 3.537h26.525a3.544 3.544 0 003.545-3.535V13.062a.885.885 0 00-.247-.614zM32.288 2.388l9.62 9.997h-9.62V2.388zM3.978 32.731a.884.884 0 01-.883-.883V18.576c0-.487.397-.883.883-.883h23.888c.487 0 .883.396.883.883V31.85a.884.884 0 01-.883.882H3.978zm38.925 9.734c0 .973-.797 1.766-1.776 1.766H14.602c-.98 0-1.776-.793-1.776-1.768V34.5h15.04a2.655 2.655 0 002.653-2.651V18.575a2.655 2.655 0 00-2.653-2.652h-15.04V3.543c0-.978.797-1.774 1.776-1.774h15.916v11.5c0 .489.397.885.885.885h11.5v28.31z" fill="#F90"/><path d="M11.904 22.451a1.993 1.993 0 00-1.094-.743c-.283-.076-.891-.114-1.824-.114H6.523v7.598h1.535v-2.866h1c.695 0 1.225-.036 1.591-.109.27-.059.535-.179.796-.36.261-.182.476-.431.645-.75.17-.317.254-.71.254-1.176 0-.605-.147-1.098-.44-1.48zm-1.314 2.092c-.116.17-.276.294-.48.373-.204.08-.608.12-1.213.12h-.84v-2.157H8.8c.553 0 .92.017 1.104.052.249.045.454.157.617.337.162.18.243.408.243.684 0 .225-.057.422-.173.59zm9.13-.873a3.32 3.32 0 00-.726-1.232 2.542 2.542 0 00-1.146-.7c-.332-.096-.814-.144-1.446-.144h-2.804v7.598h2.887c.567 0 1.02-.053 1.358-.16.453-.145.812-.348 1.078-.607.352-.342.624-.79.814-1.342.155-.453.233-.992.233-1.617 0-.712-.083-1.31-.249-1.796zm-1.494 3.12c-.103.34-.237.585-.401.733a1.427 1.427 0 01-.62.317c-.19.048-.5.072-.928.072h-1.145V22.88h.69c.625 0 1.045.024 1.259.073.287.062.523.181.71.357.186.177.332.422.435.736.104.315.156.766.156 1.353 0 .588-.052 1.052-.156 1.392zm8.262-3.91v-1.286H21.28v7.598h1.535v-3.229h3.172v-1.285h-3.172v-1.799h3.674z" fill="#F90"/></svg>