<svg width="46" height="46" fill="none" xmlns="http://www.w3.org/2000/svg"><path d="M44.425 12.448L32.706.271A.885.885 0 0032.068 0H14.602a3.548 3.548 0 00-3.545 3.544v12.38H3.978a2.655 2.655 0 00-2.652 2.65v13.274A2.655 2.655 0 003.978 34.5h7.079v7.963c0 1.95 1.59 3.537 3.545 3.537h26.525a3.544 3.544 0 003.545-3.535V13.062a.885.885 0 00-.247-.614zM32.288 2.388l9.62 9.997h-9.62V2.388zM3.978 32.731a.884.884 0 01-.883-.883V18.576c0-.487.397-.883.883-.883h23.888c.487 0 .883.396.883.883V31.85a.884.884 0 01-.883.882H3.978zm38.925 9.734c0 .973-.797 1.766-1.776 1.766H14.602c-.98 0-1.776-.793-1.776-1.768V34.5h15.04a2.655 2.655 0 002.653-2.651V18.575a2.655 2.655 0 00-2.653-2.652h-15.04V3.543c0-.978.797-1.774 1.776-1.774h15.916v11.5c0 .489.397.885.885.885h11.5v28.31z" fill="#F90"/><path d="M7.582 25.22h.498c.466 0 .814-.09 1.045-.273.231-.185.347-.454.347-.805 0-.355-.098-.617-.293-.787-.192-.169-.495-.253-.908-.253h-.689v2.119zM11 24.089c0 .768-.24 1.356-.723 1.763-.478.407-1.16.61-2.046.61h-.649V29H6.068v-7.139h2.28c.867 0 1.524.188 1.973.562.453.37.679.926.679 1.665zM18.68 29h-1.923l-3.106-5.4h-.044c.062.953.093 1.634.093 2.04V29h-1.352v-7.139h1.909l3.1 5.347h.035a43.314 43.314 0 01-.074-1.968v-3.379h1.363V29zm4.512-4.009h2.832v3.701a7.79 7.79 0 01-1.298.313 8.185 8.185 0 01-1.24.093c-1.078 0-1.902-.316-2.471-.948-.567-.634-.85-1.544-.85-2.73 0-1.151.329-2.05.986-2.694.661-.645 1.576-.967 2.744-.967.733 0 1.44.146 2.12.44l-.503 1.21a3.592 3.592 0 00-1.626-.39c-.655 0-1.179.22-1.572.659-.394.44-.591 1.03-.591 1.772 0 .775.158 1.367.473 1.777.32.407.781.61 1.387.61.316 0 .636-.032.962-.097v-1.489h-1.353v-1.26z" fill="#F90"/></svg>