<svg width="46" height="46" fill="none" xmlns="http://www.w3.org/2000/svg"><path d="M44.425 12.448L32.706.271A.885.885 0 0032.068 0H14.602a3.548 3.548 0 00-3.545 3.544v12.38H3.978a2.655 2.655 0 00-2.652 2.65v13.274A2.655 2.655 0 003.978 34.5h7.079v7.963c0 1.95 1.59 3.537 3.545 3.537h26.525a3.544 3.544 0 003.545-3.535V13.062a.885.885 0 00-.247-.614zM32.288 2.388l9.62 9.997h-9.62V2.388zM3.978 32.731a.884.884 0 01-.883-.883V18.576c0-.487.397-.883.883-.883h23.888c.487 0 .883.396.883.883V31.85a.884.884 0 01-.883.882H3.978zm38.925 9.734c0 .973-.797 1.766-1.776 1.766H14.602c-.98 0-1.776-.793-1.776-1.768V34.5h15.04a2.655 2.655 0 002.653-2.651V18.575a2.655 2.655 0 00-2.653-2.652h-15.04V3.543c0-.978.797-1.774 1.776-1.774h15.916v11.5c0 .489.397.885.885.885h11.5v28.31z" fill="#F90"/><path d="M7.094 24.633h.537c.527 0 .915-.087 1.166-.263.25-.175.376-.451.376-.827 0-.372-.129-.637-.387-.795-.254-.158-.65-.236-1.187-.236h-.505v2.121zm0 1.354V29H5.43v-7.852h2.288c1.067 0 1.857.195 2.369.585.512.387.768.976.768 1.767 0 .462-.127.874-.381 1.235-.255.358-.614.64-1.08.844A318.133 318.133 0 0011.703 29H9.855L7.98 25.987h-.886zM17.498 29l-.57-1.87h-2.862l-.57 1.87h-1.793l2.771-7.885h2.036L19.292 29h-1.794zm-.967-3.266l-.891-2.873a9.037 9.037 0 01-.14-.527c-.118.459-.457 1.592-1.015 3.4h2.046zm5.42-1.1h.537c.526 0 .915-.088 1.165-.264.251-.175.376-.451.376-.827 0-.372-.129-.637-.386-.795-.255-.158-.65-.236-1.187-.236h-.505v2.121zm0 1.353V29h-1.665v-7.852h2.288c1.067 0 1.856.195 2.368.585.512.387.768.976.768 1.767a2.1 2.1 0 01-.38 1.235c-.255.358-.615.64-1.08.844A317.26 317.26 0 0026.56 29h-1.85l-1.874-3.013h-.886z" fill="#F90"/></svg>