<svg width="46" height="46" fill="none" xmlns="http://www.w3.org/2000/svg"><path d="M44.425 12.448L32.706.271A.885.885 0 0032.068 0H14.602a3.548 3.548 0 00-3.545 3.544v12.38H3.978a2.655 2.655 0 00-2.652 2.65v13.274A2.655 2.655 0 003.978 34.5h7.079v7.963c0 1.95 1.59 3.537 3.545 3.537h26.525a3.544 3.544 0 003.545-3.535V13.062a.885.885 0 00-.247-.614zM32.288 2.388l9.62 9.997h-9.62V2.388zM3.978 32.731a.884.884 0 01-.883-.883V18.576c0-.487.397-.883.883-.883h23.888c.487 0 .883.396.883.883V31.85a.884.884 0 01-.883.882H3.978zm38.925 9.734c0 .973-.797 1.766-1.776 1.766H14.602c-.98 0-1.776-.793-1.776-1.768V34.5h15.04a2.655 2.655 0 002.652-2.651V18.575a2.655 2.655 0 00-2.652-2.652h-15.04V3.543c0-.978.797-1.774 1.776-1.774h15.916v11.5c0 .489.397.885.885.885h11.5v28.31z" fill="#F90"/><path d="M13.53 29h-1.902l-1.826-2.97L7.976 29H6.192l2.605-4.05-2.438-3.802h1.837l1.692 2.825 1.66-2.825h1.793l-2.465 3.893L13.529 29zm.988 0v-7.852h1.665v6.477h3.185V29h-4.85zm10.855-2.18c0 .708-.257 1.267-.768 1.675-.509.408-1.218.612-2.128.612-.837 0-1.579-.157-2.223-.472v-1.547c.53.236.977.403 1.343.5a4.01 4.01 0 001.01.144c.365 0 .644-.07.837-.21.197-.139.296-.346.296-.622a.676.676 0 00-.13-.408 1.406 1.406 0 00-.38-.35c-.165-.11-.504-.288-1.016-.531-.48-.226-.84-.442-1.08-.65a2.437 2.437 0 01-.574-.725 2.068 2.068 0 01-.215-.967c0-.695.235-1.24.704-1.638.473-.398 1.124-.596 1.955-.596.408 0 .797.048 1.165.145.373.096.761.232 1.166.408l-.537 1.294a7.78 7.78 0 00-1.042-.36 3.31 3.31 0 00-.806-.102c-.315 0-.557.074-.725.22a.726.726 0 00-.252.575c0 .147.034.276.102.387.068.107.175.213.322.317.15.1.503.283 1.058.548.734.35 1.237.703 1.51 1.058.271.35.408.782.408 1.294z" fill="#F90"/></svg>