<svg width="46" height="46" fill="none" xmlns="http://www.w3.org/2000/svg"><path d="M44.425 12.448L32.706.271A.885.885 0 0032.068 0H14.602a3.548 3.548 0 00-3.545 3.544v12.38H3.978a2.655 2.655 0 00-2.652 2.65v13.274A2.655 2.655 0 003.978 34.5h7.079v7.963c0 1.95 1.59 3.537 3.545 3.537h26.525a3.544 3.544 0 003.545-3.535V13.062a.885.885 0 00-.247-.614zM32.288 2.388l9.62 9.997h-9.62V2.388zM3.978 32.731a.884.884 0 01-.883-.883V18.576c0-.487.397-.883.883-.883h23.888c.487 0 .883.396.883.883V31.85a.884.884 0 01-.883.882H3.978zm38.925 9.734c0 .973-.797 1.766-1.776 1.766H14.602c-.98 0-1.776-.793-1.776-1.768V34.5h15.04a2.655 2.655 0 002.653-2.651V18.575a2.655 2.655 0 00-2.653-2.652h-15.04V3.543c0-.978.797-1.774 1.776-1.774h15.916v11.5c0 .489.397.885.885.885h11.5v28.31z" fill="#F90"/></svg>