<svg width="189" height="148" fill="none" xmlns="http://www.w3.org/2000/svg"><g clip-path="url(#clip0)"><path d="M150.039 136.153a2.06 2.06 0 012.902-.275l3.374 2.79-.991-10.457a2.061 2.061 0 114.105-.389l.99 10.455 2.79-3.374a2.058 2.058 0 012.902-.275 2.06 2.06 0 01.275 2.902l-7.277 8.799-8.796-7.275a2.06 2.06 0 01-.274-2.901z" fill="#fff"/></g><path d="M9.587 40.982c28.16-8.259 81.143-13.276 114.001 12.5 32.725 25.672 33.668 63.377 34.5 86" stroke="#fff" stroke-width="3" stroke-dasharray="20 20"/><defs><clipPath id="clip0"><path fill="#fff" transform="rotate(174.591 81.213 76.681)" d="M0 0h20.456v20.456H0z"/></clipPath></defs></svg>