<svg width="198" height="80" fill="none" xmlns="http://www.w3.org/2000/svg"><g clip-path="url(#clip0)"><path d="M8.305 58.695a2.061 2.061 0 012.335 1.746l.625 4.333 6.291-8.413a2.06 2.06 0 113.302 2.47l-6.29 8.41 4.334-.625a2.053 2.053 0 011.529.389 2.06 2.06 0 01-.94 3.69L8.19 72.327 6.56 61.028a2.06 2.06 0 011.745-2.333z" fill="#fff"/></g><path d="M194 43.82C174.519 21.873 130.029 3.917 88.5 8.32c-41.361 4.385-63.286 39.769-76 58.5" stroke="#fff" stroke-width="3" stroke-dasharray="20 20"/><defs><clipPath id="clip0"><path fill="#fff" transform="rotate(-143.211 21.236 36.502)" d="M0 0h20.456v20.456H0z"/></clipPath></defs></svg>