<svg width="243" height="80" fill="none" xmlns="http://www.w3.org/2000/svg"><path d="M2 43.642c20.833-20.666 73.334-47.528 114.5-40.5 41 7 102 47.358 113 63.358" stroke="#fff" stroke-width="3" stroke-dasharray="20 20"/><g clip-path="url(#clip0)"><path d="M221.906 70.24a2.061 2.061 0 012.178-1.938l4.37.255-6.983-7.847a2.06 2.06 0 113.08-2.74l6.981 7.844.255-4.371c.033-.568.293-1.07.687-1.42a2.06 2.06 0 013.428 1.66l-.663 11.398-11.396-.663a2.06 2.06 0 01-1.937-2.177z" fill="#fff"/></g><defs><clipPath id="clip0"><path fill="#fff" transform="rotate(138.331 108.828 79.355)" d="M0 0h20.456v20.456H0z"/></clipPath></defs></svg>