<svg width="190" height="159" fill="none" xmlns="http://www.w3.org/2000/svg"><g clip-path="url(#clip0)"><path d="M10.841 57.33a2.061 2.061 0 011.258 2.63l-1.458 4.128 9.477-4.53a2.06 2.06 0 111.778 3.72l-9.475 4.529 4.128 1.458c.537.189.947.579 1.174 1.054a2.06 2.06 0 01-2.546 2.832L4.41 69.35l3.802-10.764a2.06 2.06 0 012.63-1.256z" fill="#fff"/></g><path d="M172 115.801c0-22-23.5-53.516-50-66-37.627-17.726-90.41 6.427-111 15.835" stroke="#fff" stroke-width="3" stroke-dasharray="20 20"/><defs><clipPath id="clip0"><path fill="#fff" transform="rotate(-115.549 29.177 36.509)" d="M0 0h20.456v20.456H0z"/></clipPath></defs></svg>