<svg width="274" height="45" fill="none" xmlns="http://www.w3.org/2000/svg"><path d="M2 1.833c20.833 20.667 75.739 41.5 117.5 41.5 45 0 126.5-18 141-29.62" stroke="#17BA9B" stroke-width="3" stroke-dasharray="20 20"/><g clip-path="url(#clip0)"><path d="M255.075 7.94a2.06 2.06 0 001.333 2.593l4.168 1.338-9.341 4.803a2.061 2.061 0 101.885 3.666l9.339-4.801-1.337 4.168a2.055 2.055 0 00.129 1.573 2.06 2.06 0 003.796-.313l3.488-10.872-10.869-3.488a2.06 2.06 0 00-2.591 1.333z" fill="#17BA9B"/></g><defs><clipPath id="clip0"><path fill="#fff" transform="scale(-1 1) rotate(-62.789 -120.882 233.443)" d="M0 0h20.456v20.456H0z"/></clipPath></defs></svg>