<svg width="249" height="103" fill="none" xmlns="http://www.w3.org/2000/svg"><path d="M243.348 36.039c-18.559 22.731-67.964 54.933-109.639 52.247C92.202 85.61 27.318 51.849 14.705 37.087" stroke="#17BA9B" stroke-width="3" stroke-dasharray="20 20"/><g clip-path="url(#clip0)"><path d="M21.867 32.573a2.061 2.061 0 01-1.964 2.155l-4.373.204 7.766 7.074a2.06 2.06 0 11-2.776 3.048l-7.764-7.072.204 4.373a2.054 2.054 0 01-.535 1.485 2.06 2.06 0 01-3.583-1.292L8.31 31.141l11.403-.532a2.06 2.06 0 012.154 1.963z" fill="#17BA9B"/></g><defs><clipPath id="clip0"><path fill="#fff" transform="rotate(-47.669 44.516 17.743)" d="M0 0h20.456v20.456H0z"/></clipPath></defs></svg>