<svg width="24" height="24" fill="none" xmlns="http://www.w3.org/2000/svg"><path d="M12 2.028c-6.627 0-12 5.373-12 12a11.95 11.95 0 002.72 7.609c.263-2.1 2.36-3.876 5.3-4.717 1.075 1.001 2.463 1.608 3.98 1.608 1.482 0 2.842-.576 3.906-1.535 2.966.914 5.018 2.794 5.085 4.978A11.953 11.953 0 0024 14.028c0-6.627-5.372-12-12-12zm0 15.08a4.284 4.284 0 01-2.129-.576c-1.544-.879-2.608-2.677-2.608-4.754C7.263 8.84 9.388 6.45 12 6.45s4.737 2.39 4.737 5.33c0 2.108-1.097 3.928-2.68 4.792-.623.34-1.32.536-2.057.536z" fill="#17BA9B"/></svg>